<?xml version="1.0" encoding="utf-8"?>
<!-- Generator: Adobe Illustrator 22.0.1, SVG Export Plug-In . SVG Version: 6.00 Build 0)  -->
<svg version="1.1" id="Layer_1" xmlns="http://www.w3.org/2000/svg" xmlns:xlink="http://www.w3.org/1999/xlink" x="0px" y="0px"
	 viewBox="0 0 120 70" style="enable-background:new 0 0 120 70;" xml:space="preserve">
<style type="text/css">
	.st0{fill:#FFFFFF;stroke:#FFFFFF;stroke-width:6.884793e-02;stroke-miterlimit:3.8637;}
	.st1{fill-rule:evenodd;clip-rule:evenodd;fill:#FFFFFF;stroke:#FFFFFF;stroke-width:6.884793e-02;stroke-miterlimit:3.8637;}
	.st2{fill:none;}
	.st3{fill:#FFFFFF;}
	.st4{font-family:'MyriadPro-Bold';}
	.st5{font-size:10.7854px;}
	.st6{font-family:'MyriadPro-Regular';}
	.st7{font-size:8.7632px;}
</style>
<g>
	<g>
		<path class="st0" d="M37.6,39.6V23h3.3v16.6H37.6z"/>
		<path class="st0" d="M52.3,39.6c-1.4,0-2.7-0.2-3.9-0.7c-1.2-0.5-2.2-1.2-3-2.1c-0.8-0.9-1.5-1.9-2-3.1c-0.5-1.2-0.7-2.5-0.7-3.8
			c0-1.4,0.2-2.7,0.7-3.8c0.5-1.1,1.1-2.1,2-3c0.8-0.8,1.9-1.5,3-1.9c1.2-0.5,2.5-0.7,3.9-0.7h2.8v3.3h-2.8c-0.9,0-1.8,0.2-2.5,0.5
			c-0.8,0.3-1.4,0.8-2,1.3c-0.6,0.6-1,1.2-1.3,2c-0.3,0.8-0.5,1.6-0.5,2.5c0,0.9,0.2,1.7,0.5,2.5c0.3,0.8,0.7,1.4,1.3,1.9
			c0.6,0.5,1.2,1,2,1.3c0.8,0.3,1.6,0.5,2.6,0.5h2.8v3.3H52.3z"/>
		<path class="st0" d="M70.8,39.6h-4.7L61,34.2c-0.3-0.3-0.5-0.6-0.7-0.9c-0.2-0.3-0.2-0.6-0.2-0.8c0-1,0.7-1.6,2-1.7
			c1.8-0.1,3.1-0.5,4-1.1c0.9-0.6,1.3-1.5,1.3-2.6c0-1.1-0.3-1.9-1-2.5c-0.7-0.5-1.6-0.8-2.8-0.8h-3.7v15.8h-3.3V20.5h7.1
			c1,0,1.9,0.1,2.8,0.4c0.9,0.3,1.6,0.7,2.3,1.2c0.6,0.5,1.2,1.2,1.5,2c0.4,0.8,0.6,1.8,0.6,2.8c0,0.6-0.1,1.3-0.3,2
			c-0.2,0.7-0.5,1.3-1,1.9c-0.5,0.6-1.1,1.1-1.8,1.6c-0.8,0.5-1.7,0.8-2.8,0.9L70.8,39.6z"/>
		<path class="st0" d="M81.8,39.6c-1.4,0-2.7-0.2-3.9-0.7c-1.2-0.5-2.2-1.2-3-2.1c-0.8-0.9-1.5-1.9-2-3.1c-0.5-1.2-0.7-2.5-0.7-3.8
			c0-1.4,0.2-2.7,0.7-3.8c0.5-1.1,1.1-2.1,2-3c0.8-0.8,1.9-1.5,3-1.9c1.2-0.5,2.5-0.7,3.9-0.7h2.8v3.3h-2.8c-0.9,0-1.8,0.2-2.5,0.5
			c-0.8,0.3-1.4,0.8-2,1.3c-0.6,0.6-1,1.2-1.3,2c-0.3,0.8-0.5,1.6-0.5,2.5c0,0.9,0.2,1.7,0.5,2.5c0.3,0.8,0.7,1.4,1.3,1.9
			c0.6,0.5,1.2,1,2,1.3c0.8,0.3,1.6,0.5,2.6,0.5h2.8v3.3H81.8z"/>
		<path class="st1" d="M38.3,16c0,1.5,1.2,1.6,0.9,1.1c-1.4-2.1-0.2-4.2,0.4-5.7c0.5,1.5,1.6,3.7,0,5.8c-0.3,0.5,0.9,0.5,1-1
			l2.9-0.4l-1.4,3l0,0c-0.1,0.1-0.1,0.1-0.2,0.2c-0.1,0.1-0.2,0.1-0.4,0.1c0,0,0,0,0,0L39.9,19c0,0-0.1,0-0.1,0.1l0,0.5
			c0,0,0.1,0.1,0.1,0.1l0.6,0l0.3,0.5c0.1,0.1,0.1,0.1,0.2,0.1c0.1,0,0.2,0,0.2-0.1l0.2-0.4l0.6,0l-0.2,0.8l-0.4,0.4l0.5,0.8
			l-0.6,0.4L40,20.3l-0.3,0l0,1.4l-0.7,0l0-1.4l-0.8,0l-0.4,1.3c0,0.1-0.1,0.2-0.2,0.2l-0.8,0.2l-0.1-0.6l0.6-0.1l0.2-0.9l-0.4,0
			l0,0l0-0.6l1.8,0.1c0,0,0.1-0.1,0.1-0.1l0-0.5c0,0,0-0.1-0.1-0.1l-1.8-0.1c0,0,0,0,0,0c-0.1,0-0.2-0.1-0.4-0.1
			c-0.1-0.1-0.2-0.2-0.2-0.2l0,0l-1.2-3.1L38.3,16z M41.3,16.7l1.2-0.2c-0.6,1.2-1.8,1.9-3,1.9c-1.3,0-2.4-0.9-2.9-2.1l1.1,0.2
			c0.1,0.9,0.9,1.5,1.8,1.6C40.4,18.2,41.1,17.6,41.3,16.7z M39.6,14.4l0.1,1.4c0,0,0,0,0,0c0.1,0.1,0.1,0,0.1,0l0,0
			c0.3-0.4,0.1-1.5-0.1-2l0,0c0,0,0-0.1-0.1-0.1c-0.1,0-0.1,0.1-0.1,0.1l0,0c-0.2,0.6-0.5,1.6-0.2,2l0,0c0.1,0,0.1,0.1,0.1,0
			c0,0,0,0,0,0L39.6,14.4z"/>
	</g>
	<rect x="4.6" y="42.1" class="st2" width="110.7" height="16.6"/>
	<text transform="matrix(1 0 0 1 6.7091 49.7177)"><tspan x="0" y="0" class="st3 st4 st5">Blavatnik </tspan><tspan x="47.8" y="0" class="st3 st6 st7">Interdisciplinary</tspan><tspan x="12" y="8.8" class="st3 st6 st7">Cyber Research Center</tspan></text>
</g>
</svg>
