<?xml version="1.0" encoding="utf-8"?>
<!-- Generator: Adobe Illustrator 22.0.1, SVG Export Plug-In . SVG Version: 6.00 Build 0)  -->
<svg version="1.1" id="Layer_1" xmlns="http://www.w3.org/2000/svg" xmlns:xlink="http://www.w3.org/1999/xlink" x="0px" y="0px"
	 viewBox="0 0 120 70" style="enable-background:new 0 0 120 70;" xml:space="preserve">
<style type="text/css">
	.st0{fill:#FFFFFF;}
	.st1{fill:none;}
</style>
<g>
	<path class="st0" d="M38.2,52c0-0.5-0.1-1-0.1-1.4h0c-0.1,0.4-0.2,0.8-0.4,1.2l-0.6,1.6h-0.3l-0.5-1.6c-0.1-0.5-0.3-0.9-0.4-1.3h0
		c0,0.4,0,0.9-0.1,1.4l-0.1,1.4h-0.4l0.2-3.3h0.5l0.5,1.6c0.1,0.4,0.2,0.8,0.3,1.1h0c0.1-0.3,0.2-0.7,0.3-1.1l0.6-1.6h0.5l0.2,3.3
		h-0.4L38.2,52z"/>
	<path class="st0" d="M39.3,51.1h0.4v2.3h-0.4V51.1z M39.8,50.4c0,0.1-0.1,0.3-0.3,0.3c-0.1,0-0.2-0.1-0.2-0.3
		c0-0.1,0.1-0.3,0.3-0.3C39.7,50.2,39.8,50.3,39.8,50.4"/>
	<path class="st0" d="M40.4,51.7c0-0.2,0-0.4,0-0.6h0.4l0,0.4h0c0.1-0.2,0.4-0.4,0.7-0.4c0.3,0,0.8,0.2,0.8,1v1.4h-0.4v-1.3
		c0-0.4-0.1-0.7-0.5-0.7c-0.3,0-0.5,0.2-0.5,0.4c0,0.1,0,0.1,0,0.2v1.4h-0.4V51.7z"/>
	<path class="st0" d="M43,51.1h0.4v2.3H43V51.1z M43.5,50.4c0,0.1-0.1,0.3-0.3,0.3c-0.1,0-0.2-0.1-0.2-0.3c0-0.1,0.1-0.3,0.3-0.3
		C43.4,50.2,43.5,50.3,43.5,50.4"/>
	<path class="st0" d="M44,53c0.1,0.1,0.3,0.2,0.5,0.2c0.3,0,0.4-0.2,0.4-0.3c0-0.2-0.1-0.3-0.4-0.4C44.2,52.2,44,52,44,51.7
		c0-0.4,0.3-0.7,0.8-0.7c0.2,0,0.4,0.1,0.5,0.1l-0.1,0.3c-0.1-0.1-0.3-0.1-0.5-0.1c-0.2,0-0.4,0.1-0.4,0.3c0,0.2,0.1,0.3,0.4,0.4
		c0.4,0.2,0.6,0.4,0.6,0.7c0,0.4-0.3,0.7-0.8,0.7c-0.2,0-0.5-0.1-0.6-0.2L44,53z"/>
	<path class="st0" d="M46.4,50.5v0.6H47v0.3h-0.6v1.3c0,0.3,0.1,0.5,0.3,0.5c0.1,0,0.2,0,0.2,0l0,0.3c-0.1,0-0.2,0.1-0.4,0.1
		c-0.2,0-0.3-0.1-0.4-0.2c-0.1-0.1-0.2-0.3-0.2-0.6v-1.3h-0.3v-0.3H46v-0.4L46.4,50.5z"/>
	<path class="st0" d="M47.5,51.8c0-0.3,0-0.5,0-0.7h0.4l0,0.5h0c0.1-0.3,0.4-0.5,0.6-0.5c0,0,0.1,0,0.1,0v0.4c0,0-0.1,0-0.1,0
		c-0.3,0-0.5,0.2-0.5,0.5c0,0.1,0,0.1,0,0.2v1.2h-0.4V51.8z"/>
	<path class="st0" d="M49.2,51.1l0.5,1.4c0.1,0.2,0.1,0.3,0.1,0.5h0c0-0.1,0.1-0.3,0.1-0.5l0.4-1.4h0.4l-0.6,1.7
		c-0.3,0.8-0.5,1.2-0.8,1.5c-0.2,0.2-0.4,0.2-0.5,0.3l-0.1-0.4c0.1,0,0.2-0.1,0.4-0.2c0.1-0.1,0.2-0.3,0.3-0.5c0,0,0-0.1,0-0.1
		c0,0,0-0.1,0-0.1l-0.8-2.2H49.2z"/>
	<path class="st0" d="M52.5,52.2c0,0.5,0.3,0.9,0.7,0.9c0.4,0,0.7-0.4,0.7-0.9c0-0.4-0.2-0.9-0.7-0.9C52.7,51.3,52.5,51.8,52.5,52.2
		 M54.3,52.2c0,0.9-0.6,1.2-1.1,1.2c-0.6,0-1.1-0.5-1.1-1.2c0-0.8,0.5-1.2,1.1-1.2C53.9,51,54.3,51.5,54.3,52.2"/>
	<path class="st0" d="M54.9,53.4v-2h-0.3v-0.3h0.3V51c0-0.3,0.1-0.6,0.3-0.8c0.2-0.2,0.4-0.2,0.5-0.2c0.1,0,0.3,0,0.3,0.1L56,50.3
		c-0.1,0-0.1-0.1-0.3-0.1c-0.3,0-0.4,0.3-0.4,0.7v0.1h0.5v0.3h-0.5v2H54.9z"/>
	<rect x="25.5" y="11.3" class="st1" width="69" height="48"/>
	<polygon class="st0" points="57.2,50.2 58.9,50.2 58.9,50.5 57.6,50.5 57.6,51.6 58.8,51.6 58.8,51.9 57.6,51.9 57.6,53.4 
		57.2,53.4 	"/>
	<path class="st0" d="M59.5,52.2c0,0.5,0.3,0.9,0.7,0.9c0.4,0,0.7-0.4,0.7-0.9c0-0.4-0.2-0.9-0.7-0.9C59.7,51.3,59.5,51.8,59.5,52.2
		 M61.3,52.2c0,0.9-0.6,1.2-1.1,1.2c-0.6,0-1.1-0.5-1.1-1.2c0-0.8,0.5-1.2,1.1-1.2C60.9,51,61.3,51.5,61.3,52.2"/>
	<path class="st0" d="M61.8,51.8c0-0.3,0-0.5,0-0.7h0.4l0,0.5h0c0.1-0.3,0.4-0.5,0.6-0.5c0,0,0.1,0,0.1,0v0.4c0,0-0.1,0-0.1,0
		c-0.3,0-0.5,0.2-0.5,0.5c0,0.1,0,0.1,0,0.2v1.2h-0.4V51.8z"/>
	<path class="st0" d="M64.7,52c0-0.3-0.1-0.7-0.6-0.7c-0.4,0-0.6,0.4-0.6,0.7H64.7z M63.5,52.3c0,0.6,0.4,0.8,0.8,0.8
		c0.3,0,0.5-0.1,0.6-0.1l0.1,0.3c-0.1,0.1-0.4,0.2-0.8,0.2c-0.7,0-1.1-0.5-1.1-1.2c0-0.7,0.4-1.3,1.1-1.3c0.7,0,0.9,0.7,0.9,1.1
		c0,0.1,0,0.1,0,0.2H63.5z"/>
	<path class="st0" d="M65.6,51.1H66v2.3h-0.4V51.1z M66.1,50.4c0,0.1-0.1,0.3-0.3,0.3c-0.1,0-0.2-0.1-0.2-0.3c0-0.1,0.1-0.3,0.3-0.3
		C66,50.2,66.1,50.3,66.1,50.4"/>
	<path class="st0" d="M68.2,52c0-0.1,0-0.1,0-0.2c-0.1-0.3-0.3-0.5-0.6-0.5c-0.4,0-0.7,0.3-0.7,0.9c0,0.5,0.2,0.8,0.7,0.8
		c0.3,0,0.5-0.2,0.6-0.4c0-0.1,0-0.2,0-0.2V52z M68.6,53.1c0,0.5-0.1,0.9-0.3,1.1c-0.2,0.2-0.5,0.3-0.8,0.3c-0.3,0-0.6-0.1-0.7-0.2
		l0.1-0.3c0.1,0.1,0.4,0.2,0.7,0.2c0.4,0,0.7-0.2,0.7-0.8V53h0c-0.1,0.2-0.4,0.4-0.7,0.4c-0.6,0-1-0.5-1-1.1c0-0.8,0.5-1.2,1-1.2
		c0.4,0,0.6,0.2,0.7,0.4h0l0-0.4h0.4c0,0.2,0,0.4,0,0.6V53.1z"/>
	<path class="st0" d="M69.3,51.7c0-0.2,0-0.4,0-0.6h0.4l0,0.4h0c0.1-0.2,0.4-0.4,0.7-0.4c0.3,0,0.8,0.2,0.8,1v1.4h-0.4v-1.3
		c0-0.4-0.1-0.7-0.5-0.7c-0.3,0-0.5,0.2-0.5,0.4c0,0.1,0,0.1,0,0.2v1.4h-0.4V51.7z"/>
	<path class="st0" d="M74.4,52.1l-0.3-0.9c-0.1-0.2-0.1-0.4-0.2-0.6h0c0,0.2-0.1,0.4-0.2,0.6l-0.3,0.9H74.4z M73.4,52.4l-0.3,1h-0.4
		l1.1-3.3h0.5l1.1,3.3h-0.4l-0.3-1H73.4z"/>
	<path class="st0" d="M77.1,53.4v-2h-0.9v2h-0.4v-2h-0.3v-0.3h0.3V51c0-0.3,0.1-0.6,0.3-0.8c0.1-0.1,0.3-0.2,0.6-0.2
		c0.1,0,0.3,0,0.3,0.1l-0.1,0.3c-0.1,0-0.1-0.1-0.2-0.1c-0.3,0-0.4,0.3-0.4,0.7v0.1h0.9V51c0-0.3,0.1-0.6,0.3-0.8
		c0.2-0.2,0.4-0.2,0.5-0.2c0.1,0,0.3,0,0.3,0.1l-0.1,0.3c-0.1,0-0.1-0.1-0.3-0.1c-0.3,0-0.4,0.3-0.4,0.7v0.1H78v0.3h-0.5v2H77.1z"/>
	<path class="st0" d="M79.6,52.2c-0.4,0-1,0.1-1,0.5c0,0.3,0.2,0.4,0.4,0.4c0.3,0,0.5-0.2,0.6-0.4c0,0,0-0.1,0-0.1V52.2z M79.9,52.9
		c0,0.2,0,0.4,0,0.6h-0.4l0-0.3h0c-0.1,0.2-0.4,0.3-0.7,0.3c-0.5,0-0.7-0.3-0.7-0.7c0-0.6,0.5-0.9,1.4-0.9v0c0-0.2-0.1-0.5-0.5-0.5
		c-0.2,0-0.4,0.1-0.6,0.2l-0.1-0.3c0.2-0.1,0.5-0.2,0.7-0.2c0.7,0,0.9,0.5,0.9,1V52.9z"/>
	<path class="st0" d="M80.6,51.1H81v2.3h-0.4V51.1z M81.1,50.4c0,0.1-0.1,0.3-0.3,0.3c-0.1,0-0.2-0.1-0.2-0.3c0-0.1,0.1-0.3,0.3-0.3
		C81,50.2,81.1,50.3,81.1,50.4"/>
	<path class="st0" d="M81.7,51.8c0-0.3,0-0.5,0-0.7H82l0,0.5h0c0.1-0.3,0.4-0.5,0.6-0.5c0,0,0.1,0,0.1,0v0.4c0,0-0.1,0-0.1,0
		c-0.3,0-0.5,0.2-0.5,0.5c0,0.1,0,0.1,0,0.2v1.2h-0.4V51.8z"/>
	<path class="st0" d="M83.2,53c0.1,0.1,0.3,0.2,0.5,0.2c0.3,0,0.4-0.2,0.4-0.3c0-0.2-0.1-0.3-0.4-0.4c-0.4-0.2-0.6-0.4-0.6-0.7
		c0-0.4,0.3-0.7,0.8-0.7c0.2,0,0.4,0.1,0.5,0.1l-0.1,0.3c-0.1-0.1-0.3-0.1-0.5-0.1c-0.2,0-0.4,0.1-0.4,0.3c0,0.2,0.1,0.3,0.4,0.4
		c0.4,0.2,0.6,0.4,0.6,0.7c0,0.4-0.3,0.7-0.8,0.7c-0.2,0-0.5-0.1-0.6-0.2L83.2,53z"/>
	<rect x="25.5" y="11.3" class="st1" width="69" height="48"/>
	<rect x="55.3" y="56" class="st0" width="0.4" height="3.3"/>
	<path class="st0" d="M56.3,58.8c0.1,0.1,0.3,0.2,0.5,0.2c0.3,0,0.4-0.1,0.4-0.3c0-0.2-0.1-0.3-0.4-0.4c-0.4-0.2-0.6-0.4-0.6-0.7
		c0-0.4,0.3-0.7,0.8-0.7c0.2,0,0.4,0.1,0.5,0.1l-0.1,0.3c-0.1-0.1-0.3-0.1-0.5-0.1c-0.2,0-0.4,0.1-0.4,0.3c0,0.2,0.1,0.3,0.4,0.4
		c0.4,0.1,0.6,0.4,0.6,0.7c0,0.4-0.3,0.7-0.8,0.7c-0.2,0-0.5-0.1-0.6-0.2L56.3,58.8z"/>
	<path class="st0" d="M58.2,57.6c0-0.3,0-0.5,0-0.7h0.4l0,0.5h0c0.1-0.3,0.4-0.5,0.6-0.5c0,0,0.1,0,0.1,0v0.4c0,0-0.1,0-0.1,0
		c-0.3,0-0.5,0.2-0.5,0.5c0,0.1,0,0.1,0,0.2v1.2h-0.4V57.6z"/>
	<path class="st0" d="M60.9,58c-0.4,0-1,0.1-1,0.5c0,0.3,0.2,0.4,0.4,0.4c0.3,0,0.5-0.2,0.6-0.4c0,0,0-0.1,0-0.1V58z M61.3,58.7
		c0,0.2,0,0.4,0,0.6h-0.4l0-0.3h0c-0.1,0.2-0.4,0.3-0.7,0.3c-0.5,0-0.7-0.3-0.7-0.7c0-0.6,0.5-0.9,1.4-0.9v0c0-0.2-0.1-0.5-0.5-0.5
		c-0.2,0-0.4,0.1-0.6,0.2L59.7,57c0.2-0.1,0.5-0.2,0.7-0.2c0.7,0,0.9,0.5,0.9,1V58.7z"/>
	<path class="st0" d="M63.4,57.8c0-0.3-0.1-0.7-0.6-0.7c-0.4,0-0.6,0.4-0.6,0.7H63.4z M62.2,58.1c0,0.6,0.4,0.8,0.8,0.8
		c0.3,0,0.5-0.1,0.6-0.1l0.1,0.3c-0.1,0.1-0.4,0.1-0.8,0.1c-0.7,0-1.1-0.5-1.1-1.2c0-0.7,0.4-1.3,1.1-1.3c0.7,0,0.9,0.7,0.9,1.1
		c0,0.1,0,0.2,0,0.2H62.2z"/>
	<rect x="25.5" y="11.3" class="st1" width="69" height="48"/>
	<rect x="64.3" y="55.8" class="st0" width="0.4" height="3.4"/>
	<path class="st0" d="M61.9,44.9c1.4-0.2,2.5-0.8,3.6-1.5c-0.9-1.1-2.1-1.8-3.6-2.3V44.9z M58.1,41.2c-1.4,0.6-2.8,1.3-3.6,2.4
		c1.1,0.6,2.2,1.2,3.6,1.4C58.1,43.7,58.2,42.4,58.1,41.2 M56.4,31.7c-0.4-0.1-0.9-0.4-1.3-0.6c-1.3-0.7-2.5-1.7-3.4-2.5
		c-0.8,1.2-1.4,2.5-1.7,4.2h5.7c0.3,0.6,0.7,1.2,1,1.9c-0.3,0.6-0.7,1.3-1.1,1.8h-5.6c0.3,1.7,0.9,3.2,1.8,4.3
		c0.7-0.7,1.5-1.4,2.4-2c1.1-0.7,2.3-1.4,4.1-1.3c0.5,0.9,1,1.8,1.5,2.7c0.6-0.8,1.1-1.8,1.6-2.7c2-0.1,3.2,0.5,4.4,1.3
		c0.9,0.6,1.6,1.3,2.3,1.9c0.8-1.2,1.4-2.5,1.7-4.2h-5.6c-0.4-0.6-0.8-1.3-1.1-2c0.4-0.6,0.6-1.2,1-1.7h5.6
		c-0.3-1.7-0.9-3.1-1.7-4.2c-0.2,0.4-0.5,0.7-0.9,1c-0.3,0.3-0.7,0.5-1.1,0.8c-0.6,0.4-1.6,1.2-2.4,1.3c-0.7,0.1-1.4-0.1-2.2,0
		c-0.5-0.9-1-1.8-1.5-2.7c-0.6,0.8-1,1.9-1.7,2.7C57.7,31.7,57,31.8,56.4,31.7 M61.9,28.3c1.5-0.5,2.7-1.2,3.6-2.4
		c-1-0.7-2.2-1.3-3.6-1.6V28.3z M54.4,26c1,1,2.3,1.8,3.8,2.3c0-1.3,0.1-2.8-0.1-3.9C56.6,24.7,55.4,25.2,54.4,26 M59.5,23
		c3.6-0.2,6.4,1.4,8.2,3.2c1.9,1.8,3.4,4.5,3.5,8.1c0.1,3.9-1.3,6.5-3.1,8.6c-1.8,2-4.5,3.5-7.8,3.6c-3.6,0.2-6.3-1.3-8.2-3.2
		c-1.9-1.8-3.4-4.7-3.5-8.1c-0.1-3.9,1.3-6.6,3.1-8.6C53.6,24.7,55.9,23.2,59.5,23"/>
	<g>
		<path class="st0" d="M32.6,15.7v-4.1h0.7v4.1H32.6z"/>
		<path class="st0" d="M37,15.7h-0.7v-1.9c0-0.2,0-0.4-0.1-0.5S35.9,13,35.7,13c-0.3,0-0.5,0.1-0.6,0.2c-0.1,0.2-0.2,0.4-0.2,0.8
			v1.6h-0.7v-3.1h0.5l0.1,0.4h0c0.1-0.1,0.2-0.3,0.4-0.3s0.4-0.1,0.6-0.1c0.7,0,1.1,0.4,1.1,1.1V15.7z"/>
		<path class="st0" d="M40.7,15.7c-0.5,0-0.8-0.1-1.1-0.4s-0.4-0.7-0.4-1.2c0-0.5,0.1-0.9,0.4-1.2c0.3-0.3,0.6-0.4,1.1-0.4
			c0.3,0,0.6,0.1,0.9,0.2l-0.2,0.5c-0.3-0.1-0.5-0.2-0.7-0.2c-0.5,0-0.8,0.4-0.8,1.1c0,0.3,0.1,0.6,0.2,0.8c0.1,0.2,0.3,0.3,0.6,0.3
			c0.3,0,0.6-0.1,0.8-0.2v0.6c-0.1,0.1-0.2,0.1-0.4,0.1C41,15.7,40.9,15.7,40.7,15.7z"/>
		<path class="st0" d="M45,14.1c0,0.5-0.1,0.9-0.4,1.2s-0.6,0.4-1.1,0.4c-0.3,0-0.5-0.1-0.8-0.2s-0.4-0.3-0.5-0.6
			c-0.1-0.2-0.2-0.5-0.2-0.9c0-0.5,0.1-0.9,0.4-1.2c0.3-0.3,0.6-0.4,1.1-0.4c0.5,0,0.8,0.1,1.1,0.4S45,13.6,45,14.1z M42.8,14.1
			c0,0.7,0.3,1.1,0.8,1.1c0.5,0,0.8-0.4,0.8-1.1c0-0.7-0.3-1.1-0.8-1.1c-0.3,0-0.5,0.1-0.6,0.3C42.8,13.5,42.8,13.8,42.8,14.1z"/>
		<path class="st0" d="M48.6,14.1c0,0.5-0.1,0.9-0.4,1.2s-0.6,0.4-1.1,0.4c-0.3,0-0.5-0.1-0.8-0.2s-0.4-0.3-0.5-0.6
			c-0.1-0.2-0.2-0.5-0.2-0.9c0-0.5,0.1-0.9,0.4-1.2c0.3-0.3,0.6-0.4,1.1-0.4c0.5,0,0.8,0.1,1.1,0.4S48.6,13.6,48.6,14.1z M46.3,14.1
			c0,0.7,0.3,1.1,0.8,1.1c0.5,0,0.8-0.4,0.8-1.1c0-0.7-0.3-1.1-0.8-1.1c-0.3,0-0.5,0.1-0.6,0.3C46.4,13.5,46.3,13.8,46.3,14.1z"/>
		<path class="st0" d="M50.9,15.7c-0.4,0-0.7-0.1-0.9-0.4h0c0,0.3,0,0.4,0,0.5v1.3h-0.7v-4.5h0.5c0,0.1,0,0.2,0.1,0.4h0
			c0.2-0.3,0.5-0.5,0.9-0.5c0.4,0,0.7,0.1,0.9,0.4c0.2,0.3,0.3,0.7,0.3,1.2S52,15,51.8,15.3S51.3,15.7,50.9,15.7z M50.7,13
			c-0.3,0-0.5,0.1-0.6,0.2S50,13.7,50,14v0.1c0,0.4,0.1,0.7,0.2,0.8c0.1,0.2,0.3,0.3,0.6,0.3c0.2,0,0.4-0.1,0.5-0.3
			c0.1-0.2,0.2-0.5,0.2-0.8c0-0.3-0.1-0.6-0.2-0.8C51.2,13.1,51,13,50.7,13z"/>
		<path class="st0" d="M54.3,15.7c-0.5,0-0.9-0.1-1.1-0.4c-0.3-0.3-0.4-0.7-0.4-1.2c0-0.5,0.1-0.9,0.4-1.2c0.3-0.3,0.6-0.4,1-0.4
			c0.4,0,0.7,0.1,1,0.4s0.4,0.6,0.4,1v0.4h-2.1c0,0.3,0.1,0.5,0.2,0.7c0.2,0.2,0.4,0.2,0.6,0.2c0.2,0,0.4,0,0.5-0.1
			c0.2,0,0.3-0.1,0.5-0.2v0.5c-0.2,0.1-0.3,0.1-0.5,0.2C54.7,15.7,54.5,15.7,54.3,15.7z M54.1,13c-0.2,0-0.4,0.1-0.5,0.2
			c-0.1,0.1-0.2,0.3-0.2,0.6h1.4c0-0.3-0.1-0.5-0.2-0.6S54.4,13,54.1,13z"/>
		<path class="st0" d="M57.8,12.5c0.1,0,0.2,0,0.3,0l-0.1,0.6c-0.1,0-0.2,0-0.3,0c-0.3,0-0.5,0.1-0.6,0.3c-0.2,0.2-0.2,0.4-0.2,0.7
			v1.6h-0.7v-3.1h0.5l0.1,0.5h0c0.1-0.2,0.2-0.3,0.4-0.4S57.6,12.5,57.8,12.5z"/>
		<path class="st0" d="M60.7,15.7l-0.1-0.4h0c-0.2,0.2-0.3,0.3-0.5,0.4c-0.2,0.1-0.3,0.1-0.6,0.1c-0.3,0-0.5-0.1-0.7-0.2
			s-0.3-0.4-0.3-0.7c0-0.3,0.1-0.6,0.4-0.7c0.2-0.2,0.6-0.3,1.1-0.3l0.5,0v-0.2c0-0.2,0-0.3-0.1-0.4c-0.1-0.1-0.2-0.1-0.4-0.1
			c-0.2,0-0.3,0-0.5,0.1s-0.3,0.1-0.4,0.2l-0.2-0.5c0.2-0.1,0.4-0.2,0.6-0.2s0.4-0.1,0.6-0.1c0.4,0,0.7,0.1,0.9,0.3
			c0.2,0.2,0.3,0.4,0.3,0.8v2.1H60.7z M59.7,15.2c0.2,0,0.4-0.1,0.6-0.2s0.2-0.3,0.2-0.6v-0.3l-0.4,0c-0.3,0-0.5,0.1-0.7,0.2
			c-0.1,0.1-0.2,0.2-0.2,0.4c0,0.1,0,0.2,0.1,0.3C59.4,15.2,59.5,15.2,59.7,15.2z"/>
		<path class="st0" d="M63.2,15.2c0.2,0,0.3,0,0.5-0.1v0.5c-0.1,0-0.2,0.1-0.3,0.1s-0.2,0-0.4,0c-0.6,0-0.9-0.3-0.9-1v-1.7h-0.4
			v-0.3l0.5-0.2l0.2-0.7h0.4v0.7h0.9v0.5h-0.9v1.7c0,0.2,0,0.3,0.1,0.4C63,15.2,63.1,15.2,63.2,15.2z"/>
		<path class="st0" d="M64.3,11.7c0-0.1,0-0.2,0.1-0.3c0.1-0.1,0.2-0.1,0.3-0.1c0.1,0,0.2,0,0.3,0.1c0.1,0.1,0.1,0.2,0.1,0.3
			c0,0.1,0,0.2-0.1,0.3c-0.1,0.1-0.2,0.1-0.3,0.1c-0.1,0-0.2,0-0.3-0.1C64.3,11.9,64.3,11.8,64.3,11.7z M65,15.7h-0.7v-3.1H65V15.7z
			"/>
		<path class="st0" d="M68.7,14.1c0,0.5-0.1,0.9-0.4,1.2s-0.6,0.4-1.1,0.4c-0.3,0-0.5-0.1-0.8-0.2s-0.4-0.3-0.5-0.6
			c-0.1-0.2-0.2-0.5-0.2-0.9c0-0.5,0.1-0.9,0.4-1.2c0.3-0.3,0.6-0.4,1.1-0.4c0.5,0,0.8,0.1,1.1,0.4S68.7,13.6,68.7,14.1z M66.4,14.1
			c0,0.7,0.3,1.1,0.8,1.1c0.5,0,0.8-0.4,0.8-1.1c0-0.7-0.3-1.1-0.8-1.1c-0.3,0-0.5,0.1-0.6,0.3C66.5,13.5,66.4,13.8,66.4,14.1z"/>
		<path class="st0" d="M72.2,15.7h-0.7v-1.9c0-0.2,0-0.4-0.1-0.5S71.1,13,70.9,13c-0.3,0-0.5,0.1-0.6,0.2c-0.1,0.2-0.2,0.4-0.2,0.8
			v1.6h-0.7v-3.1H70l0.1,0.4h0c0.1-0.1,0.2-0.3,0.4-0.3s0.4-0.1,0.6-0.1c0.7,0,1.1,0.4,1.1,1.1V15.7z"/>
		<path class="st0" d="M77.2,15.7l-0.4-1.5c0-0.2-0.1-0.5-0.3-1.1h0c-0.1,0.5-0.2,0.9-0.3,1.1l-0.4,1.4h-0.7l-0.9-3.1h0.7l0.4,1.5
			c0.1,0.4,0.2,0.7,0.2,1h0c0-0.1,0-0.3,0.1-0.5c0-0.2,0.1-0.3,0.1-0.4l0.5-1.6h0.7l0.5,1.6c0,0.1,0.1,0.2,0.1,0.4
			c0,0.2,0.1,0.3,0.1,0.4h0c0-0.2,0.1-0.6,0.2-1l0.4-1.5h0.7l-0.9,3.1H77.2z"/>
		<path class="st0" d="M79.3,11.7c0-0.1,0-0.2,0.1-0.3c0.1-0.1,0.2-0.1,0.3-0.1c0.1,0,0.2,0,0.3,0.1c0.1,0.1,0.1,0.2,0.1,0.3
			c0,0.1,0,0.2-0.1,0.3c-0.1,0.1-0.2,0.1-0.3,0.1c-0.1,0-0.2,0-0.3-0.1C79.3,11.9,79.3,11.8,79.3,11.7z M80,15.7h-0.7v-3.1H80V15.7z
			"/>
		<path class="st0" d="M82.1,15.2c0.2,0,0.3,0,0.5-0.1v0.5c-0.1,0-0.2,0.1-0.3,0.1s-0.2,0-0.4,0c-0.6,0-0.9-0.3-0.9-1v-1.7h-0.4
			v-0.3l0.5-0.2l0.2-0.7h0.4v0.7h0.9v0.5h-0.9v1.7c0,0.2,0,0.3,0.1,0.4C81.9,15.2,82,15.2,82.1,15.2z"/>
		<path class="st0" d="M85.9,15.7h-0.7v-1.9c0-0.2,0-0.4-0.1-0.5S84.9,13,84.7,13c-0.3,0-0.5,0.1-0.6,0.2c-0.1,0.2-0.2,0.4-0.2,0.8
			v1.5h-0.7v-4.4h0.7v1.1c0,0.2,0,0.4,0,0.6h0c0.1-0.1,0.2-0.3,0.4-0.3c0.2-0.1,0.3-0.1,0.6-0.1c0.8,0,1.1,0.4,1.1,1.1V15.7z"/>
		<path class="st0" d="M86.8,12.9c0-0.3,0.1-0.4,0.4-0.4c0.1,0,0.2,0,0.3,0.1c0.1,0.1,0.1,0.2,0.1,0.3c0,0.1,0,0.2-0.1,0.3
			c-0.1,0.1-0.2,0.1-0.3,0.1s-0.2,0-0.3-0.1S86.8,13.1,86.8,12.9z M86.8,15.3c0-0.1,0-0.2,0.1-0.3c0.1-0.1,0.2-0.1,0.3-0.1
			c0.1,0,0.2,0,0.3,0.1c0.1,0.1,0.1,0.2,0.1,0.3c0,0.1,0,0.2-0.1,0.3c-0.1,0.1-0.2,0.1-0.3,0.1s-0.2,0-0.3-0.1
			C86.8,15.6,86.8,15.5,86.8,15.3z"/>
	</g>
	<rect x="25.5" y="11.3" class="st1" width="69" height="48"/>
</g>
</svg>
