<?xml version="1.0" encoding="utf-8"?>
<!-- Generator: Adobe Illustrator 22.0.1, SVG Export Plug-In . SVG Version: 6.00 Build 0)  -->
<svg version="1.1" id="Layer_1" xmlns="http://www.w3.org/2000/svg" xmlns:xlink="http://www.w3.org/1999/xlink" x="0px" y="0px"
	 viewBox="0 0 120 70" style="enable-background:new 0 0 120 70;" xml:space="preserve">
<style type="text/css">
	.st0{fill:#FFFFFF;}
</style>
<g>
	<path class="st0" d="M97.8,27c-1.9,4.5-7.2,6.7-11.9,4.8c-4.6-1.9-6.8-7.1-4.9-11.6c1.9-4.5,7.2-6.7,11.9-4.8
		C97.5,17.3,99.7,22.5,97.8,27 M99.3,27.6c2.3-5.3-0.3-11.5-5.8-13.7c-5.4-2.2-11.7,0.3-14,5.7c-2.3,5.3,0.3,11.5,5.8,13.7
		C90.7,35.5,97,33,99.3,27.6"/>
	<path class="st0" d="M82.1,33.8c-3-3.9-2.3-9.5,1.7-12.4c4-3,9.7-2.3,12.7,1.6c3,3.9,2.3,9.5-1.7,12.4
		C90.8,38.4,85.1,37.6,82.1,33.8 M80.8,34.7c3.6,4.6,10.3,5.4,15,1.9c4.7-3.5,5.6-10.1,2-14.7c-3.6-4.6-10.3-5.4-15-1.9
		C78.1,23.6,77.2,30.2,80.8,34.7"/>
	<path class="st0" d="M84,17.1c5-0.6,9.5,2.8,10.2,7.6c0.6,4.9-2.9,9.3-7.8,10c-5,0.6-9.5-2.8-10.2-7.6C75.5,22.2,79,17.8,84,17.1
		 M83.8,15.5c-5.9,0.8-10,6-9.2,11.7c0.8,5.7,6.1,9.8,12,9c5.9-0.8,10-6,9.2-11.7C95,18.8,89.7,14.8,83.8,15.5"/>
	<path class="st0" d="M72.9,24.3c0-6.1-5-11.1-11.1-11.1c-2.4,0-4.7,0.8-6.6,2.2c-4.7,1.4-7.9,5.7-7.9,10.6c0,4.9,3.2,9.3,7.9,10.6
		c1.9,1.4,4.2,2.2,6.6,2.2c6.1,0,11.1-5,11.1-11.1c0-0.6,0-1.1-0.1-1.7C72.8,25.4,72.9,24.8,72.9,24.3 M63.7,32.3
		c-0.6,0.1-1.2,0.2-1.8,0.2c-3.9,0-7.3-2.7-8.1-6.5c0.8-3.8,4.2-6.5,8.1-6.5c0.6,0,1.2,0.1,1.8,0.2c1.8,1.6,2.9,3.9,2.9,6.3
		C66.6,28.4,65.5,30.7,63.7,32.3"/>
	<path class="st0" d="M32.7,27.5c-1.7,0-2.3-1.6-2.3-1.8c0-0.1-0.1-0.2-0.2-0.3c-0.2,0-1.4-0.2-1.4-0.2s1.1,2.5,4,2.5
		c2.9,0,4-2.5,4-2.5s-1.1,0.2-1.4,0.2c-0.2,0-0.2,0.1-0.3,0.2C34.9,26.1,34.4,27.5,32.7,27.5z"/>
	<path class="st0" d="M32.7,13.2c-7.1,0-12.8,5.7-12.8,12.8c0,7.1,5.7,12.8,12.8,12.8c7.1,0,12.8-5.7,12.8-12.8
		C45.5,18.9,39.8,13.2,32.7,13.2z M36.5,27.8c-0.1,0.2-0.4,0.7-1,0.7c-0.6,0-1.9,0-2.1,0c-0.1,0-0.2,0.1-0.2,0.2c0,0.1,0,0.4,0,0.5
		c0,0.1,0.1,0.2,0.1,0.2c0.1,0,0,0,0.6,0c0.3,0,0.4,0.3,0.8,0.7c0,0,0.2,0,0.3-0.2c0-0.1,0.1-0.5,0.1-0.5c0.5,0,0.9,0,0.9,0
		s-0.1,0.8-0.2,1c-0.1,0.2-0.5,0.4-0.5,0.4l0.8,1l-0.7,0.5c0,0-1.2-1.4-1.7-2c-0.1-0.1-0.2,0-0.5,0v1.9h-0.5h-0.5v-1.8
		c0-0.1-0.2-0.2-0.2-0.2h-0.7L31,32.1l-1.3,0.3l-0.2-0.9l0.7-0.2l0.2-1.2h-0.5v-0.9h2.2c0.1,0,0.1-0.1,0.1-0.2c0-0.1,0-0.3,0-0.5
		c0-0.1-0.1-0.1-0.2-0.2c-0.2,0-1.5,0-2.1,0c-0.5,0-0.9-0.5-1-0.7c-0.1-0.2-1.5-3.5-1.5-3.5s2.7,0.4,3.1,0.5
		c0.5,0.1,0.5,0.6,0.5,0.8c0.1,0.2,0.1,0.4,0.4,0.7c0.3,0.3,0.6,0.5,0.7,0.3c0.1-0.1,0.1-0.2,0-0.2c-0.1-0.2-0.9-1.2-0.9-2.5
		c0-0.9,0.2-1.6,0.7-2.9c0.4-1.1,0.6-1.4,0.6-1.4s0.1,0.4,0.6,1.4c0.5,1.3,0.7,2,0.7,2.9c0,1.3-0.7,2.3-0.9,2.5c0,0,0,0.2,0,0.2
		c0.2,0.1,0.5,0,0.7-0.3c0.3-0.3,0.3-0.5,0.4-0.7c0-0.2,0-0.7,0.5-0.8c0.4-0.1,3.1-0.5,3.1-0.5S36.6,27.6,36.5,27.8z"/>
	<path class="st0" d="M32.5,25.2C32.5,25.2,32.5,25.2,32.5,25.2c0-0.1,0.2-2.3,0.2-2.3s0.2,2.3,0.2,2.3c0,0,0,0,0,0c0,0,0,0,0-0.1
		c0,0,0.2-0.8,0.2-1.3c0-0.6-0.5-2.4-0.5-2.4h0c0,0-0.5,1.8-0.5,2.4C32.2,24.3,32.4,25.1,32.5,25.2C32.4,25.2,32.4,25.2,32.5,25.2z"
		/>
	<polygon class="st0" points="23,43.6 21.6,43.6 21.6,42.5 25.7,42.5 25.7,43.6 24.3,43.6 24.3,48.4 23,48.4 	"/>
	<polygon class="st0" points="23,43.6 21.6,43.6 21.6,42.5 25.7,42.5 25.7,43.6 24.3,43.6 24.3,48.4 23,48.4 	"/>
	<polygon class="st0" points="29.7,45.9 27.8,45.9 27.8,47.4 30,47.4 30,48.4 26.6,48.4 26.6,42.5 29.8,42.5 29.8,43.6 27.8,43.6 
		27.8,44.9 29.7,44.9 	"/>
	<polygon class="st0" points="29.7,45.9 27.8,45.9 27.8,47.4 30,47.4 30,48.4 26.6,48.4 26.6,42.5 29.8,42.5 29.8,43.6 27.8,43.6 
		27.8,44.9 29.7,44.9 	"/>
	<polygon class="st0" points="30.8,42.5 32.1,42.5 32.1,47.4 34.2,47.4 34.2,48.4 30.8,48.4 	"/>
	<polygon class="st0" points="30.8,42.5 32.1,42.5 32.1,47.4 34.2,47.4 34.2,48.4 30.8,48.4 	"/>
	<path class="st0" d="M37.8,47l-0.4,1.5h-1.3l1.6-5.9h1.6l1.6,5.9h-1.3L39.3,47H37.8z M39.1,46l-0.3-1.3c-0.1-0.4-0.2-0.8-0.3-1.2h0
		c-0.1,0.4-0.2,0.9-0.3,1.2L37.9,46H39.1z"/>
	<path class="st0" d="M37.8,47l-0.4,1.5h-1.3l1.6-5.9h1.6l1.6,5.9h-1.3L39.3,47H37.8z M39.1,46l-0.3-1.3c-0.1-0.4-0.2-0.8-0.3-1.2h0
		c-0.1,0.4-0.2,0.9-0.3,1.2L37.9,46H39.1z"/>
	<path class="st0" d="M42.2,48.4l-1.7-5.9h1.4l0.6,2.5c0.2,0.7,0.3,1.4,0.5,2.1h0c0.1-0.7,0.3-1.4,0.5-2.1l0.6-2.5h1.4l-1.8,5.9
		H42.2z"/>
	<path class="st0" d="M42.2,48.4l-1.7-5.9h1.4l0.6,2.5c0.2,0.7,0.3,1.4,0.5,2.1h0c0.1-0.7,0.3-1.4,0.5-2.1l0.6-2.5h1.4l-1.8,5.9
		H42.2z"/>
	<rect x="46" y="42.5" class="st0" width="1.3" height="5.9"/>
	<rect x="46" y="42.5" class="st0" width="1.3" height="5.9"/>
	<path class="st0" d="M49.6,48.4l-1.7-5.9h1.4l0.6,2.5c0.2,0.7,0.3,1.4,0.5,2.1h0c0.1-0.7,0.3-1.4,0.5-2.1l0.6-2.5h1.4l-1.8,5.9
		H49.6z"/>
	<path class="st0" d="M49.6,48.4l-1.7-5.9h1.4l0.6,2.5c0.2,0.7,0.3,1.4,0.5,2.1h0c0.1-0.7,0.3-1.4,0.5-2.1l0.6-2.5h1.4l-1.8,5.9
		H49.6z"/>
	<path class="st0" d="M23.3,50.9v3.5c0,1,0.3,1.4,0.9,1.4c0.6,0,0.9-0.4,0.9-1.4v-3.5h1.3v3.4c0,1.7-0.8,2.6-2.2,2.6
		c-1.4,0-2.1-0.8-2.1-2.6v-3.4H23.3z"/>
	<path class="st0" d="M23.3,50.9v3.5c0,1,0.3,1.4,0.9,1.4c0.6,0,0.9-0.4,0.9-1.4v-3.5h1.3v3.4c0,1.7-0.8,2.6-2.2,2.6
		c-1.4,0-2.1-0.8-2.1-2.6v-3.4H23.3z"/>
	<path class="st0" d="M27.3,56.8v-5.9h1.4l1.1,2.2c0.3,0.6,0.6,1.3,0.9,1.9h0c-0.1-0.7-0.1-1.6-0.1-2.6v-1.6h1.1v5.9h-1.3l-1.1-2.3
		c-0.3-0.6-0.7-1.3-0.9-2h0c0,0.7,0.1,1.6,0.1,2.6v1.6H27.3z"/>
	<path class="st0" d="M27.3,56.8v-5.9h1.4l1.1,2.2c0.3,0.6,0.6,1.3,0.9,1.9h0c-0.1-0.7-0.1-1.6-0.1-2.6v-1.6h1.1v5.9h-1.3l-1.1-2.3
		c-0.3-0.6-0.7-1.3-0.9-2h0c0,0.7,0.1,1.6,0.1,2.6v1.6H27.3z"/>
	<rect x="32.7" y="50.9" class="st0" width="1.3" height="5.9"/>
	<rect x="32.7" y="50.9" class="st0" width="1.3" height="5.9"/>
	<path class="st0" d="M36.4,56.8l-1.7-5.9h1.4l0.6,2.5c0.2,0.7,0.3,1.4,0.5,2.1h0c0.1-0.7,0.3-1.4,0.5-2.1l0.6-2.5h1.4l-1.8,5.9
		H36.4z"/>
	<path class="st0" d="M36.4,56.8l-1.7-5.9h1.4l0.6,2.5c0.2,0.7,0.3,1.4,0.5,2.1h0c0.1-0.7,0.3-1.4,0.5-2.1l0.6-2.5h1.4l-1.8,5.9
		H36.4z"/>
	<polygon class="st0" points="43.4,54.2 41.5,54.2 41.5,55.7 43.6,55.7 43.6,56.8 40.2,56.8 40.2,50.9 43.5,50.9 43.5,51.9 
		41.5,51.9 41.5,53.2 43.4,53.2 	"/>
	<polygon class="st0" points="43.4,54.2 41.5,54.2 41.5,55.7 43.6,55.7 43.6,56.8 40.2,56.8 40.2,50.9 43.5,50.9 43.5,51.9 
		41.5,51.9 41.5,53.2 43.4,53.2 	"/>
	<path class="st0" d="M44.5,50.9c0.4-0.1,1-0.1,1.6-0.1c0.8,0,1.4,0.1,1.8,0.5c0.4,0.3,0.5,0.7,0.5,1.2c0,0.7-0.5,1.3-1,1.5v0
		c0.4,0.2,0.6,0.6,0.8,1.1c0.2,0.7,0.3,1.4,0.4,1.6h-1.3c-0.1-0.2-0.2-0.7-0.4-1.4c-0.1-0.7-0.4-0.9-0.9-0.9h-0.3v2.3h-1.3V50.9z
		 M45.8,53.5h0.4c0.6,0,1-0.4,1-0.9c0-0.5-0.3-0.8-0.9-0.8c-0.3,0-0.4,0-0.5,0V53.5z"/>
	<path class="st0" d="M44.5,50.9c0.4-0.1,1-0.1,1.6-0.1c0.8,0,1.4,0.1,1.8,0.5c0.4,0.3,0.5,0.7,0.5,1.2c0,0.7-0.5,1.3-1,1.5v0
		c0.4,0.2,0.6,0.6,0.8,1.1c0.2,0.7,0.3,1.4,0.4,1.6h-1.3c-0.1-0.2-0.2-0.7-0.4-1.4c-0.1-0.7-0.4-0.9-0.9-0.9h-0.3v2.3h-1.3V50.9z
		 M45.8,53.5h0.4c0.6,0,1-0.4,1-0.9c0-0.5-0.3-0.8-0.9-0.8c-0.3,0-0.4,0-0.5,0V53.5z"/>
	<path class="st0" d="M49.5,55.4c0.3,0.2,0.8,0.3,1.3,0.3c0.6,0,0.9-0.3,0.9-0.6c0-0.4-0.3-0.6-0.9-0.9c-0.9-0.4-1.5-1-1.5-1.7
		c0-1,0.8-1.8,2.1-1.8c0.6,0,1,0.1,1.3,0.3l-0.3,1c-0.2-0.1-0.6-0.3-1.1-0.3c-0.5,0-0.8,0.3-0.8,0.6c0,0.4,0.3,0.5,1,0.9
		c1,0.4,1.4,1,1.4,1.7c0,1-0.8,1.8-2.2,1.8c-0.6,0-1.2-0.2-1.5-0.3L49.5,55.4z"/>
	<path class="st0" d="M49.5,55.4c0.3,0.2,0.8,0.3,1.3,0.3c0.6,0,0.9-0.3,0.9-0.6c0-0.4-0.3-0.6-0.9-0.9c-0.9-0.4-1.5-1-1.5-1.7
		c0-1,0.8-1.8,2.1-1.8c0.6,0,1,0.1,1.3,0.3l-0.3,1c-0.2-0.1-0.6-0.3-1.1-0.3c-0.5,0-0.8,0.3-0.8,0.6c0,0.4,0.3,0.5,1,0.9
		c1,0.4,1.4,1,1.4,1.7c0,1-0.8,1.8-2.2,1.8c-0.6,0-1.2-0.2-1.5-0.3L49.5,55.4z"/>
	<rect x="53.8" y="50.9" class="st0" width="1.3" height="5.9"/>
	<rect x="53.8" y="50.9" class="st0" width="1.3" height="5.9"/>
	<polygon class="st0" points="57.3,52 55.9,52 55.9,50.9 60,50.9 60,52 58.6,52 58.6,56.8 57.3,56.8 	"/>
	<polygon class="st0" points="57.3,52 55.9,52 55.9,50.9 60,50.9 60,52 58.6,52 58.6,56.8 57.3,56.8 	"/>
	<path class="st0" d="M62.3,56.8v-2.4l-1.7-3.5h1.4l0.5,1.4c0.2,0.4,0.3,0.8,0.4,1.2h0c0.1-0.4,0.2-0.8,0.4-1.2l0.5-1.4h1.4
		l-1.7,3.5v2.4H62.3z"/>
	<path class="st0" d="M62.3,56.8v-2.4l-1.7-3.5h1.4l0.5,1.4c0.2,0.4,0.3,0.8,0.4,1.2h0c0.1-0.4,0.2-0.8,0.4-1.2l0.5-1.4h1.4
		l-1.7,3.5v2.4H62.3z"/>
	<path class="st0" d="M59.9,48.5c-0.1,0-0.3,0-0.5-0.1v-0.6c0.2,0,0.3,0,0.4,0c0.4,0,0.7-0.3,0.7-0.8v-4l-0.6,0.1v-0.7
		c0.8-0.1,1.6-0.2,2.2-0.2c0.5,0,1,0.1,1.4,0.3c0.4,0.2,0.7,0.5,0.8,0.9c0.1,0.2,0.1,0.5,0.1,0.7v4.2h-0.8v-4.2
		c0-0.8-0.5-1.3-1.6-1.3c-0.1,0-0.4,0-0.7,0v4c0,0.5-0.1,0.9-0.3,1.2C60.7,48.4,60.3,48.5,59.9,48.5"/>
	<path class="st0" d="M59.9,48.5c-0.1,0-0.3,0-0.5-0.1v-0.6c0.2,0,0.3,0,0.4,0c0.4,0,0.7-0.3,0.7-0.8v-4l-0.6,0.1v-0.7
		c0.8-0.1,1.6-0.2,2.2-0.2c0.5,0,1,0.1,1.4,0.3c0.4,0.2,0.7,0.5,0.8,0.9c0.1,0.2,0.1,0.5,0.1,0.7v4.2h-0.8v-4.2
		c0-0.8-0.5-1.3-1.6-1.3c-0.1,0-0.4,0-0.7,0v4c0,0.5-0.1,0.9-0.3,1.2C60.7,48.4,60.3,48.5,59.9,48.5z"/>
	<path class="st0" d="M68.7,43.4c-0.1-0.2-0.2-0.3-0.4-0.4c-0.2-0.1-0.4-0.1-0.6-0.1s-0.5,0-0.6,0v-0.6c0.2,0,0.4-0.1,0.6-0.1
		c0.3,0,0.5,0,0.7,0.1c0.2,0.1,0.4,0.2,0.6,0.4c0.2,0.2,0.3,0.4,0.5,0.6c0.3,0.5,0.4,1.2,0.4,2c0,0.4,0,0.8-0.1,1.2
		c-0.1,0.3-0.2,0.6-0.3,0.9c-0.1,0.2-0.3,0.4-0.5,0.6c-0.2,0.2-0.4,0.3-0.6,0.4c-0.2,0.1-0.5,0.1-0.7,0.1s-0.5,0-0.7-0.1
		c-0.2-0.1-0.4-0.2-0.6-0.4c-0.2-0.2-0.4-0.4-0.5-0.6c-0.1-0.2-0.2-0.5-0.3-0.9c-0.1-0.3-0.1-0.7-0.1-1.2v-3h0.8v3
		c0,0.7,0.1,1.2,0.3,1.7c0.1,0.2,0.3,0.4,0.5,0.6c0.2,0.1,0.4,0.2,0.7,0.2c0.3,0,0.5,0,0.7-0.1c0.2-0.1,0.3-0.2,0.4-0.4
		c0.1-0.2,0.2-0.3,0.3-0.6c0.1-0.4,0.2-0.9,0.2-1.4c0-0.3,0-0.5,0-0.7c0-0.2-0.1-0.4-0.1-0.7C68.9,43.8,68.8,43.6,68.7,43.4"/>
	<path class="st0" d="M68.7,43.4c-0.1-0.2-0.2-0.3-0.4-0.4c-0.2-0.1-0.4-0.1-0.6-0.1s-0.5,0-0.6,0v-0.6c0.2,0,0.4-0.1,0.6-0.1
		c0.3,0,0.5,0,0.7,0.1c0.2,0.1,0.4,0.2,0.6,0.4c0.2,0.2,0.3,0.4,0.5,0.6c0.3,0.5,0.4,1.2,0.4,2c0,0.4,0,0.8-0.1,1.2
		c-0.1,0.3-0.2,0.6-0.3,0.9c-0.1,0.2-0.3,0.4-0.5,0.6c-0.2,0.2-0.4,0.3-0.6,0.4c-0.2,0.1-0.5,0.1-0.7,0.1s-0.5,0-0.7-0.1
		c-0.2-0.1-0.4-0.2-0.6-0.4c-0.2-0.2-0.4-0.4-0.5-0.6c-0.1-0.2-0.2-0.5-0.3-0.9c-0.1-0.3-0.1-0.7-0.1-1.2v-3h0.8v3
		c0,0.7,0.1,1.2,0.3,1.7c0.1,0.2,0.3,0.4,0.5,0.6c0.2,0.1,0.4,0.2,0.7,0.2c0.3,0,0.5,0,0.7-0.1c0.2-0.1,0.3-0.2,0.4-0.4
		c0.1-0.2,0.2-0.3,0.3-0.6c0.1-0.4,0.2-0.9,0.2-1.4c0-0.3,0-0.5,0-0.7c0-0.2-0.1-0.4-0.1-0.7C68.9,43.8,68.8,43.6,68.7,43.4z"/>
	<polygon class="st0" points="71,46.4 71,42.4 71.7,42.4 71.7,45.6 71.1,46.4 	"/>
	<polygon class="st0" points="71,46.4 71,42.4 71.7,42.4 71.7,45.6 71.1,46.4 	"/>
	<path class="st0" d="M75,42.3c0.7,0,1.3,0.3,1.7,0.8c0.4,0.5,0.6,1.3,0.6,2.3c0,0.4,0,0.8-0.1,1.2c-0.1,0.3-0.2,0.6-0.3,0.9
		c-0.1,0.2-0.3,0.4-0.5,0.6c-0.2,0.2-0.4,0.3-0.6,0.4c-0.2,0.1-0.5,0.1-0.7,0.1c-0.3,0-0.5,0-0.7-0.1c-0.2-0.1-0.4-0.2-0.6-0.4
		c-0.2-0.2-0.4-0.4-0.5-0.6c-0.1-0.2-0.2-0.5-0.3-0.9c-0.1-0.3-0.1-0.7-0.1-1.2c0-0.6,0.1-1.1,0.2-1.5c0.1-0.4,0.3-0.7,0.5-0.9
		l-0.6,0v-0.7C73.5,42.3,74.2,42.3,75,42.3 M73.7,44c-0.1,0.5-0.2,0.9-0.2,1.3c0,0.4,0,0.7,0.1,1c0,0.3,0.1,0.5,0.2,0.8
		c0.1,0.2,0.3,0.4,0.5,0.6c0.2,0.1,0.4,0.2,0.7,0.2c0.3,0,0.5-0.1,0.7-0.2c0.2-0.1,0.4-0.3,0.5-0.6c0.2-0.5,0.3-1,0.3-1.7
		c0-0.9-0.1-1.6-0.4-2c-0.1-0.1-0.3-0.3-0.4-0.4c-0.2-0.1-0.4-0.1-0.6-0.1l-0.8,0C74,43.2,73.8,43.6,73.7,44"/>
	<path class="st0" d="M75,42.3c0.7,0,1.3,0.3,1.7,0.8c0.4,0.5,0.6,1.3,0.6,2.3c0,0.4,0,0.8-0.1,1.2c-0.1,0.3-0.2,0.6-0.3,0.9
		c-0.1,0.2-0.3,0.4-0.5,0.6c-0.2,0.2-0.4,0.3-0.6,0.4c-0.2,0.1-0.5,0.1-0.7,0.1c-0.3,0-0.5,0-0.7-0.1c-0.2-0.1-0.4-0.2-0.6-0.4
		c-0.2-0.2-0.4-0.4-0.5-0.6c-0.1-0.2-0.2-0.5-0.3-0.9c-0.1-0.3-0.1-0.7-0.1-1.2c0-0.6,0.1-1.1,0.2-1.5c0.1-0.4,0.3-0.7,0.5-0.9
		l-0.6,0v-0.7C73.5,42.3,74.2,42.3,75,42.3z M73.7,44c-0.1,0.5-0.2,0.9-0.2,1.3c0,0.4,0,0.7,0.1,1c0,0.3,0.1,0.5,0.2,0.8
		c0.1,0.2,0.3,0.4,0.5,0.6c0.2,0.1,0.4,0.2,0.7,0.2c0.3,0,0.5-0.1,0.7-0.2c0.2-0.1,0.4-0.3,0.5-0.6c0.2-0.5,0.3-1,0.3-1.7
		c0-0.9-0.1-1.6-0.4-2c-0.1-0.1-0.3-0.3-0.4-0.4c-0.2-0.1-0.4-0.1-0.6-0.1l-0.8,0C74,43.2,73.8,43.6,73.7,44z"/>
	<path class="st0" d="M77.7,42.3c0.4,0,0.8,0,1.1,0c0.3,0,0.6,0,0.8,0.1c0.2,0,0.4,0.1,0.6,0.2c0.2,0.1,0.4,0.2,0.5,0.4
		c0.3,0.3,0.4,0.7,0.4,1.3v4.2h-0.8v-4.2c0-0.8-0.5-1.3-1.6-1.3c-0.3,0-0.7,0-1.1,0V42.3z"/>
	<path class="st0" d="M77.7,42.3c0.4,0,0.8,0,1.1,0c0.3,0,0.6,0,0.8,0.1c0.2,0,0.4,0.1,0.6,0.2c0.2,0.1,0.4,0.2,0.5,0.4
		c0.3,0.3,0.4,0.7,0.4,1.3v4.2h-0.8v-4.2c0-0.8-0.5-1.3-1.6-1.3c-0.3,0-0.7,0-1.1,0V42.3z"/>
	<path class="st0" d="M82.2,42.4c0.5,0,1.1-0.1,1.7-0.1c0.7,0,1.1,0.1,1.4,0.4c0.3,0.3,0.5,0.8,0.5,1.5v3.6h0.7v0.6h-4.3v-0.6h2.9
		v-3.6c0-0.5-0.1-0.8-0.3-1s-0.5-0.3-1-0.3c-0.5,0-0.9,0-1.3,0.1l-0.2,0V42.4z"/>
	<path class="st0" d="M82.2,42.4c0.5,0,1.1-0.1,1.7-0.1c0.7,0,1.1,0.1,1.4,0.4c0.3,0.3,0.5,0.8,0.5,1.5v3.6h0.7v0.6h-4.3v-0.6h2.9
		v-3.6c0-0.5-0.1-0.8-0.3-1s-0.5-0.3-1-0.3c-0.5,0-0.9,0-1.3,0.1l-0.2,0V42.4z"/>
	<polygon class="st0" points="87.2,46.4 87.2,42.4 87.9,42.4 87.9,45.6 87.3,46.4 	"/>
	<polygon class="st0" points="87.2,46.4 87.2,42.4 87.9,42.4 87.9,45.6 87.3,46.4 	"/>
	<path class="st0" d="M89.6,42.9c-0.2,0-0.3,0-0.6,0.1v-0.6c0.2-0.1,0.5-0.1,0.8-0.1c0.9,0,1.4,0.5,1.4,1.6v3.1c0,0.3,0,0.5,0,0.8
		c0,0.2-0.1,0.4-0.1,0.5l0,0.2h-2.7v-0.6h2c0.1-0.2,0.1-0.5,0.1-0.9v-3c0-0.4-0.1-0.6-0.2-0.8C90.2,43,89.9,42.9,89.6,42.9"/>
	<path class="st0" d="M89.6,42.9c-0.2,0-0.3,0-0.6,0.1v-0.6c0.2-0.1,0.5-0.1,0.8-0.1c0.9,0,1.4,0.5,1.4,1.6v3.1c0,0.3,0,0.5,0,0.8
		c0,0.2-0.1,0.4-0.1,0.5l0,0.2h-2.7v-0.6h2c0.1-0.2,0.1-0.5,0.1-0.9v-3c0-0.4-0.1-0.6-0.2-0.8C90.2,43,89.9,42.9,89.6,42.9z"/>
	<rect x="92.5" y="42.4" class="st0" width="0.8" height="6.1"/>
	<rect x="92.5" y="42.4" class="st0" width="0.8" height="6.1"/>
	<path class="st0" d="M98.5,42.4v2c0,0.3,0,0.5,0,0.7c0,0.2-0.1,0.4-0.1,0.6c-0.1,0.4-0.4,0.7-0.9,0.9l1.1,1.9h-0.9l-1.4-2.5
		l-0.7-1.1c-0.1,0-0.2,0.1-0.3,0.1c-0.3,0.2-0.4,0.6-0.4,1.2v2.2h-0.8v-2c0-0.7,0.1-1.2,0.3-1.5c0.1-0.1,0.2-0.3,0.3-0.4
		c0.1-0.1,0.3-0.2,0.5-0.3l-1.1-1.9h0.9l1.3,2.3l0.8,1.2c0.2-0.1,0.3-0.2,0.3-0.3c0.1-0.1,0.1-0.2,0.2-0.4c0-0.2,0.1-0.4,0.1-0.6
		v-2.2H98.5z"/>
	<path class="st0" d="M98.5,42.4v2c0,0.3,0,0.5,0,0.7c0,0.2-0.1,0.4-0.1,0.6c-0.1,0.4-0.4,0.7-0.9,0.9l1.1,1.9h-0.9l-1.4-2.5
		l-0.7-1.1c-0.1,0-0.2,0.1-0.3,0.1c-0.3,0.2-0.4,0.6-0.4,1.2v2.2h-0.8v-2c0-0.7,0.1-1.2,0.3-1.5c0.1-0.1,0.2-0.3,0.3-0.4
		c0.1-0.1,0.3-0.2,0.5-0.3l-1.1-1.9h0.9l1.3,2.3l0.8,1.2c0.2-0.1,0.3-0.2,0.3-0.3c0.1-0.1,0.1-0.2,0.2-0.4c0-0.2,0.1-0.4,0.1-0.6
		v-2.2H98.5z"/>
	<path class="st0" d="M71.1,50.7c0.5,0,1.1-0.1,1.7-0.1c0.7,0,1.1,0.1,1.4,0.4c0.3,0.3,0.5,0.8,0.5,1.5v3.6h0.7v0.6h-4.3v-0.6H74
		v-3.6c0-0.5-0.1-0.8-0.3-1c-0.2-0.2-0.5-0.3-1-0.3c-0.5,0-0.9,0-1.3,0.1l-0.2,0V50.7z"/>
	<path class="st0" d="M71.1,50.7c0.5,0,1.1-0.1,1.7-0.1c0.7,0,1.1,0.1,1.4,0.4c0.3,0.3,0.5,0.8,0.5,1.5v3.6h0.7v0.6h-4.3v-0.6H74
		v-3.6c0-0.5-0.1-0.8-0.3-1c-0.2-0.2-0.5-0.3-1-0.3c-0.5,0-0.9,0-1.3,0.1l-0.2,0V50.7z"/>
	<polygon class="st0" points="75.9,54.7 75.9,50.7 76.7,50.7 76.7,53.9 76.1,54.7 	"/>
	<polygon class="st0" points="75.9,54.7 75.9,50.7 76.7,50.7 76.7,53.9 76.1,54.7 	"/>
	<path class="st0" d="M77.7,50.7c0.5,0,1.1-0.1,1.7-0.1c0.7,0,1.1,0.1,1.4,0.4c0.3,0.3,0.5,0.8,0.5,1.5v3.6H82v0.6h-4.3v-0.6h2.9
		v-3.6c0-0.5-0.1-0.8-0.3-1c-0.2-0.2-0.5-0.3-1-0.3c-0.5,0-0.9,0-1.3,0.1l-0.2,0V50.7z"/>
	<path class="st0" d="M77.7,50.7c0.5,0,1.1-0.1,1.7-0.1c0.7,0,1.1,0.1,1.4,0.4c0.3,0.3,0.5,0.8,0.5,1.5v3.6H82v0.6h-4.3v-0.6h2.9
		v-3.6c0-0.5-0.1-0.8-0.3-1c-0.2-0.2-0.5-0.3-1-0.3c-0.5,0-0.9,0-1.3,0.1l-0.2,0V50.7z"/>
	<path class="st0" d="M87.2,50.7v2c0,0.3,0,0.5,0,0.7c0,0.2-0.1,0.4-0.1,0.6c-0.1,0.4-0.4,0.7-0.9,0.9l1.1,1.9h-0.9L85,54.2
		l-0.7-1.1c-0.1,0-0.2,0.1-0.3,0.1c-0.3,0.2-0.4,0.6-0.4,1.2v2.2h-0.8v-2c0-0.7,0.1-1.2,0.3-1.5c0.1-0.1,0.2-0.3,0.3-0.4
		c0.1-0.1,0.3-0.2,0.5-0.3l-1.1-1.9h0.9l1.3,2.3l0.8,1.2c0.2-0.1,0.3-0.2,0.3-0.3c0.1-0.1,0.1-0.2,0.2-0.4c0-0.2,0.1-0.4,0.1-0.6
		v-2.2H87.2z"/>
	<path class="st0" d="M87.2,50.7v2c0,0.3,0,0.5,0,0.7c0,0.2-0.1,0.4-0.1,0.6c-0.1,0.4-0.4,0.7-0.9,0.9l1.1,1.9h-0.9L85,54.2
		l-0.7-1.1c-0.1,0-0.2,0.1-0.3,0.1c-0.3,0.2-0.4,0.6-0.4,1.2v2.2h-0.8v-2c0-0.7,0.1-1.2,0.3-1.5c0.1-0.1,0.2-0.3,0.3-0.4
		c0.1-0.1,0.3-0.2,0.5-0.3l-1.1-1.9h0.9l1.3,2.3l0.8,1.2c0.2-0.1,0.3-0.2,0.3-0.3c0.1-0.1,0.1-0.2,0.2-0.4c0-0.2,0.1-0.4,0.1-0.6
		v-2.2H87.2z"/>
	<polygon class="st0" points="89.8,50.7 92.9,50.7 92.9,51.3 92.1,54.4 91.6,56.8 90.9,56.8 91.3,54.4 92.1,51.3 89.1,51.3 
		89.1,49.5 89.8,49.5 	"/>
	<polygon class="st0" points="89.8,50.7 92.9,50.7 92.9,51.3 92.1,54.4 91.6,56.8 90.9,56.8 91.3,54.4 92.1,51.3 89.1,51.3 
		89.1,49.5 89.8,49.5 	"/>
	<path class="st0" d="M93.9,56.8c-0.1,0-0.3,0-0.5-0.1v-0.6c0.2,0,0.3,0,0.4,0c0.4,0,0.7-0.3,0.7-0.8v-4l-0.6,0.1v-0.7
		c0.8-0.1,1.6-0.2,2.2-0.2c0.5,0,1,0.1,1.4,0.3c0.4,0.2,0.7,0.5,0.8,0.9c0.1,0.2,0.1,0.5,0.1,0.7v4.2h-0.8v-4.2
		c0-0.8-0.5-1.3-1.6-1.3c-0.1,0-0.4,0-0.7,0v4c0,0.5-0.1,0.9-0.3,1.2C94.7,56.7,94.4,56.8,93.9,56.8"/>
	<path class="st0" d="M93.9,56.8c-0.1,0-0.3,0-0.5-0.1v-0.6c0.2,0,0.3,0,0.4,0c0.4,0,0.7-0.3,0.7-0.8v-4l-0.6,0.1v-0.7
		c0.8-0.1,1.6-0.2,2.2-0.2c0.5,0,1,0.1,1.4,0.3c0.4,0.2,0.7,0.5,0.8,0.9c0.1,0.2,0.1,0.5,0.1,0.7v4.2h-0.8v-4.2
		c0-0.8-0.5-1.3-1.6-1.3c-0.1,0-0.4,0-0.7,0v4c0,0.5-0.1,0.9-0.3,1.2C94.7,56.7,94.4,56.8,93.9,56.8z"/>
</g>
</svg>
