<?xml version="1.0" encoding="utf-8"?>
<!-- Generator: Adobe Illustrator 22.0.1, SVG Export Plug-In . SVG Version: 6.00 Build 0)  -->
<svg version="1.1" id="Layer_1" xmlns="http://www.w3.org/2000/svg" xmlns:xlink="http://www.w3.org/1999/xlink" x="0px" y="0px"
	 viewBox="0 0 120 70" style="enable-background:new 0 0 120 70;" xml:space="preserve">
<style type="text/css">
	.st0{fill:#FFFFFF;}
	.st1{fill:none;stroke:#FFFFFF;stroke-width:0.8922;stroke-miterlimit:3.864;}
	.st2{fill:#FFFFFF;stroke:#FFFFFF;stroke-width:0.8473;stroke-miterlimit:3.864;}
</style>
<g>
	<path class="st0" d="M5.2,55.2V52H4.7v-0.5h0.5v-0.2c0-0.5,0.1-1,0.4-1.3c0.2-0.2,0.6-0.3,0.9-0.3c0.2,0,0.4,0.1,0.5,0.1L7,50.3
		c-0.1,0-0.2-0.1-0.4-0.1c-0.5,0-0.7,0.5-0.7,1.1v0.2h0.9V52H5.9v3.2H5.2z"/>
	<path class="st0" d="M108.3,51.5h0.6v3.7h-0.6V51.5z M109,50.4c0,0.2-0.2,0.4-0.4,0.4c-0.2,0-0.4-0.2-0.4-0.4
		c0-0.2,0.2-0.4,0.4-0.4C108.8,50,109,50.2,109,50.4"/>
	<path class="st0" d="M110.8,50.6v0.9h0.9V52h-0.9v2c0,0.5,0.1,0.7,0.5,0.7c0.2,0,0.3,0,0.4,0l0,0.5c-0.1,0-0.3,0.1-0.6,0.1
		c-0.3,0-0.5-0.1-0.7-0.3c-0.2-0.2-0.2-0.5-0.2-1v-2h-0.5v-0.5h0.5v-0.7L110.8,50.6z"/>
	<path class="st0" d="M112.6,51.5l0.8,2.2c0.1,0.2,0.2,0.5,0.2,0.8h0c0.1-0.2,0.1-0.5,0.2-0.8l0.7-2.2h0.7l-1,2.6
		c-0.5,1.3-0.8,1.9-1.2,2.3c-0.3,0.3-0.6,0.4-0.8,0.4l-0.2-0.6c0.2-0.1,0.4-0.2,0.6-0.3c0.2-0.1,0.4-0.4,0.5-0.8
		c0-0.1,0.1-0.1,0.1-0.2c0,0,0-0.1-0.1-0.2l-1.3-3.4H112.6z"/>
	<path class="st1" d="M41.6,21.4c0-3.4,8.2-6.1,18.4-6.1c10.1,0,18.4,2.7,18.4,6.1c0,3.4-8.2,6.1-18.4,6.1
		C49.9,27.5,41.6,24.8,41.6,21.4z M51.1,5.4c3-1.6,9.3,4.2,14.2,13.1c4.9,8.9,6.5,17.4,3.5,19c-3,1.6-9.3-4.2-14.2-13.1
		C49.7,15.5,48.1,7,51.1,5.4z M69.2,5.5c2.9,1.7,1.2,10.2-3.9,19C60.2,33.3,53.7,39,50.8,37.3c-2.9-1.7-1.2-10.2,3.9-19
		C59.8,9.6,66.2,3.8,69.2,5.5z"/>
	<path class="st2" d="M61.9,7.4c0-1,0.8-1.8,1.8-1.8c1,0,1.8,0.8,1.8,1.8c0,1-0.8,1.8-1.8,1.8C62.7,9.2,61.9,8.4,61.9,7.4"/>
	<path class="st2" d="M44.3,25.4c0-1,0.8-1.8,1.8-1.8c1,0,1.8,0.8,1.8,1.8c0,1-0.8,1.8-1.8,1.8C45.1,27.3,44.3,26.4,44.3,25.4"/>
	<path class="st2" d="M68.6,31.3c0-1,0.8-1.8,1.8-1.8c1,0,1.8,0.8,1.8,1.8c0,1-0.8,1.8-1.8,1.8C69.4,33.1,68.6,32.3,68.6,31.3"/>
	<g>
		<path class="st0" d="M24.9,47.5v-2.2l-1.6-3h0.7l0.7,1.4c0.2,0.4,0.3,0.7,0.5,1.1h0c0.1-0.3,0.3-0.7,0.5-1.1l0.7-1.4h0.7l-1.6,3
			v2.2H24.9z"/>
		<path class="st0" d="M30.2,46.5c0,0.4,0,0.7,0,1h-0.6l0-0.6h0c-0.2,0.3-0.5,0.7-1.2,0.7c-0.6,0-1.2-0.3-1.2-1.6v-2.2h0.6v2
			c0,0.7,0.2,1.2,0.8,1.2c0.4,0,0.7-0.3,0.8-0.6c0-0.1,0.1-0.2,0.1-0.3v-2.3h0.6V46.5z"/>
		<path class="st0" d="M31.5,43.8l0.7,2.1c0.1,0.3,0.2,0.7,0.3,1h0c0.1-0.3,0.2-0.6,0.3-1l0.7-2.1h0.7l-1.4,3.7h-0.6l-1.3-3.7H31.5z
			"/>
		<path class="st0" d="M36.6,45.6c-0.7,0-1.5,0.1-1.5,0.8c0,0.4,0.3,0.6,0.6,0.6c0.5,0,0.8-0.3,0.9-0.6c0-0.1,0-0.2,0-0.2V45.6z
			 M37.2,46.6c0,0.3,0,0.6,0.1,0.9h-0.6L36.7,47h0c-0.2,0.3-0.6,0.6-1.1,0.6c-0.7,0-1.1-0.5-1.1-1.1c0-0.9,0.8-1.4,2.1-1.4V45
			c0-0.3-0.1-0.9-0.8-0.9c-0.3,0-0.7,0.1-0.9,0.3L34.7,44c0.3-0.2,0.7-0.3,1.2-0.3c1.1,0,1.3,0.8,1.3,1.5V46.6z"/>
		<rect x="38.3" y="42" class="st0" width="0.6" height="5.5"/>
		<path class="st0" d="M41.6,47.5v-5.2h0.7l1.6,2.6c0.4,0.6,0.6,1.2,0.9,1.7l0,0c-0.1-0.7-0.1-1.3-0.1-2.1v-2.2h0.6v5.2h-0.6
			L43,44.9c-0.3-0.6-0.7-1.2-0.9-1.7l0,0c0,0.7,0,1.3,0,2.1v2.2H41.6z"/>
		<path class="st0" d="M48.6,45.3c0-0.4-0.2-1.1-0.9-1.1c-0.7,0-0.9,0.6-1,1.1H48.6z M46.7,45.8c0,0.9,0.6,1.3,1.2,1.3
			c0.5,0,0.7-0.1,1-0.2l0.1,0.5c-0.2,0.1-0.6,0.2-1.2,0.2c-1.1,0-1.7-0.8-1.7-1.9c0-1.1,0.6-2,1.7-2c1.2,0,1.5,1.1,1.5,1.7
			c0,0.1,0,0.2,0,0.3H46.7z"/>
		<polygon class="st0" points="49.8,42.2 49.9,44 50.3,44 50.5,42.2 		"/>
		<path class="st0" d="M53.6,45.3c0-0.4-0.2-1.1-0.9-1.1c-0.7,0-0.9,0.6-1,1.1H53.6z M51.7,45.8c0,0.9,0.6,1.3,1.2,1.3
			c0.5,0,0.7-0.1,1-0.2l0.1,0.5c-0.2,0.1-0.6,0.2-1.2,0.2c-1.1,0-1.7-0.8-1.7-1.9c0-1.1,0.6-2,1.7-2c1.2,0,1.5,1.1,1.5,1.7
			c0,0.1,0,0.2,0,0.3H51.7z"/>
		<path class="st0" d="M55,44.8c0-0.4,0-0.7,0-1h0.6l0,0.6h0c0.2-0.4,0.5-0.7,1.1-0.7c0.5,0,0.8,0.3,1,0.7h0
			c0.1-0.2,0.3-0.4,0.4-0.5c0.2-0.2,0.4-0.3,0.8-0.3c0.5,0,1.2,0.3,1.2,1.6v2.2h-0.6v-2.1c0-0.7-0.3-1.1-0.8-1.1
			c-0.4,0-0.6,0.3-0.8,0.6c0,0.1-0.1,0.2-0.1,0.3v2.3h-0.6v-2.2c0-0.6-0.2-1-0.7-1c-0.4,0-0.7,0.3-0.8,0.7c0,0.1-0.1,0.2-0.1,0.3
			v2.2H55V44.8z"/>
		<path class="st0" d="M63,45.6c-0.7,0-1.5,0.1-1.5,0.8c0,0.4,0.3,0.6,0.6,0.6c0.5,0,0.8-0.3,0.9-0.6c0-0.1,0-0.2,0-0.2V45.6z
			 M63.6,46.6c0,0.3,0,0.6,0.1,0.9h-0.6L63,47h0c-0.2,0.3-0.6,0.6-1.1,0.6c-0.7,0-1.1-0.5-1.1-1.1c0-0.9,0.8-1.4,2.1-1.4V45
			c0-0.3-0.1-0.9-0.8-0.9c-0.3,0-0.7,0.1-0.9,0.3L61.1,44c0.3-0.2,0.7-0.3,1.2-0.3c1.1,0,1.3,0.8,1.3,1.5V46.6z"/>
		<path class="st0" d="M64.6,44.8c0-0.4,0-0.7,0-1h0.6l0,0.6h0c0.2-0.3,0.6-0.7,1.2-0.7c0.5,0,1.2,0.3,1.2,1.6v2.2H67v-2.1
			c0-0.6-0.2-1.1-0.8-1.1c-0.4,0-0.7,0.3-0.9,0.7c0,0.1,0,0.2,0,0.3v2.2h-0.6V44.8z"/>
		<path class="st0" d="M71,47.5l-1.2-5.2h0.7l0.6,2.6c0.1,0.6,0.3,1.3,0.4,1.8h0c0.1-0.5,0.2-1.1,0.4-1.8l0.7-2.6h0.7l0.6,2.6
			c0.1,0.6,0.3,1.2,0.3,1.8h0c0.1-0.6,0.2-1.1,0.4-1.8l0.6-2.6h0.6l-1.4,5.2h-0.7l-0.6-2.7c-0.2-0.7-0.3-1.2-0.3-1.7h0
			c-0.1,0.5-0.2,1-0.4,1.7l-0.7,2.7H71z"/>
		<path class="st0" d="M76.4,45.6c0,0.8,0.4,1.4,1.1,1.4c0.6,0,1.1-0.6,1.1-1.4c0-0.6-0.3-1.4-1.1-1.4
			C76.7,44.2,76.4,44.9,76.4,45.6 M79.2,45.6c0,1.4-0.9,2-1.8,2c-0.9,0-1.7-0.7-1.7-1.9c0-1.2,0.8-2,1.8-2
			C78.5,43.7,79.2,44.5,79.2,45.6"/>
		<path class="st0" d="M80,44.9c0-0.4,0-0.8,0-1.2h0.6l0,0.7h0c0.2-0.5,0.6-0.8,1-0.8c0.1,0,0.1,0,0.2,0v0.6c-0.1,0-0.1,0-0.2,0
			c-0.5,0-0.8,0.4-0.9,0.9c0,0.1,0,0.2,0,0.3v2H80V44.9z"/>
		<path class="st0" d="M83,45.5L83,45.5c0.1-0.1,0.2-0.3,0.3-0.4l1-1.3h0.8l-1.4,1.5l1.6,2.2h-0.8l-1.2-1.8L83,46.1v1.4h-0.6V42H83
			V45.5z"/>
		<path class="st0" d="M85.7,46.8c0.2,0.1,0.5,0.3,0.9,0.3c0.5,0,0.7-0.2,0.7-0.6c0-0.3-0.2-0.5-0.6-0.7c-0.6-0.2-0.9-0.6-0.9-1.1
			c0-0.6,0.5-1.1,1.2-1.1c0.4,0,0.7,0.1,0.9,0.2l-0.2,0.5c-0.1-0.1-0.4-0.2-0.7-0.2c-0.4,0-0.6,0.2-0.6,0.5c0,0.3,0.2,0.4,0.7,0.6
			c0.6,0.2,0.9,0.6,0.9,1.1c0,0.7-0.5,1.1-1.3,1.1c-0.4,0-0.7-0.1-1-0.3L85.7,46.8z"/>
		<path class="st0" d="M88.7,42h0.6v2.3h0c0.1-0.2,0.3-0.4,0.5-0.5c0.2-0.1,0.4-0.2,0.7-0.2c0.5,0,1.2,0.3,1.2,1.6v2.2H91v-2.1
			c0-0.6-0.2-1.1-0.8-1.1c-0.4,0-0.7,0.3-0.9,0.7c0,0.1,0,0.2,0,0.3v2.2h-0.6V42z"/>
		<path class="st0" d="M93.1,45.6c0,0.8,0.4,1.4,1.1,1.4c0.6,0,1.1-0.6,1.1-1.4c0-0.6-0.3-1.4-1.1-1.4
			C93.4,44.2,93.1,44.9,93.1,45.6 M95.9,45.6c0,1.4-0.9,2-1.8,2c-0.9,0-1.7-0.7-1.7-1.9c0-1.2,0.8-2,1.8-2
			C95.2,43.7,95.9,44.5,95.9,45.6"/>
		<path class="st0" d="M97.3,46c0,0.1,0,0.2,0,0.3c0.1,0.5,0.5,0.8,1,0.8c0.7,0,1.1-0.6,1.1-1.4c0-0.7-0.4-1.4-1-1.4
			c-0.4,0-0.9,0.3-1,0.8c0,0.1,0,0.2,0,0.3V46z M96.7,45c0-0.5,0-0.9,0-1.2h0.6l0,0.6h0c0.3-0.5,0.7-0.7,1.3-0.7
			c0.9,0,1.5,0.8,1.5,1.9c0,1.3-0.8,2-1.6,2c-0.5,0-0.9-0.2-1.1-0.6h0v2h-0.6V45z"/>
	</g>
	<path class="st0" d="M7.7,53.3c0,0.8,0.4,1.4,1.1,1.4c0.6,0,1.1-0.6,1.1-1.4c0-0.6-0.3-1.4-1.1-1.4C8,51.9,7.7,52.6,7.7,53.3
		 M10.5,53.3c0,1.4-0.9,2-1.8,2c-0.9,0-1.7-0.7-1.7-1.9c0-1.2,0.8-2,1.8-2C9.8,51.4,10.5,52.1,10.5,53.3"/>
	<path class="st0" d="M11.3,52.6c0-0.4,0-0.8,0-1.2h0.6l0,0.7h0c0.2-0.5,0.6-0.8,1-0.8c0.1,0,0.1,0,0.2,0V52c-0.1,0-0.1,0-0.2,0
		c-0.5,0-0.8,0.4-0.9,0.9c0,0.1,0,0.2,0,0.3v2h-0.6V52.6z"/>
	<path class="st0" d="M15.2,54.4c0.3,0.2,0.7,0.3,1.1,0.3c0.6,0,1-0.4,1-0.9c0-0.5-0.3-0.8-0.9-1c-0.8-0.3-1.3-0.8-1.3-1.5
		c0-0.8,0.6-1.4,1.6-1.4c0.5,0,0.9,0.1,1.1,0.3l-0.2,0.5c-0.2-0.1-0.5-0.2-0.9-0.2c-0.7,0-0.9,0.4-0.9,0.8c0,0.5,0.3,0.7,1,1
		c0.8,0.3,1.2,0.8,1.2,1.5c0,0.8-0.6,1.5-1.7,1.5c-0.5,0-1-0.2-1.3-0.3L15.2,54.4z"/>
	<path class="st0" d="M21.4,55c-0.2,0.1-0.5,0.2-1,0.2c-1.1,0-1.8-0.8-1.8-1.9c0-1.1,0.7-2,1.9-2c0.4,0,0.7,0.1,0.9,0.2l-0.1,0.5
		c-0.2-0.1-0.4-0.2-0.7-0.2c-0.8,0-1.2,0.6-1.2,1.4c0,0.9,0.5,1.4,1.2,1.4c0.4,0,0.6-0.1,0.8-0.2L21.4,55z"/>
	<path class="st0" d="M22.1,51.5h0.6v3.7h-0.6V51.5z M22.8,50.4c0,0.2-0.2,0.4-0.4,0.4c-0.2,0-0.4-0.2-0.4-0.4
		c0-0.2,0.2-0.4,0.4-0.4C22.7,50,22.8,50.2,22.8,50.4"/>
	<path class="st0" d="M26.1,52.9c0-0.4-0.2-1.1-0.9-1.1c-0.7,0-0.9,0.6-1,1.1H26.1z M24.2,53.4c0,0.9,0.6,1.3,1.2,1.3
		c0.5,0,0.7-0.1,1-0.2l0.1,0.5c-0.2,0.1-0.6,0.2-1.2,0.2c-1.1,0-1.7-0.8-1.7-1.9s0.6-2,1.7-2c1.2,0,1.5,1.1,1.5,1.7
		c0,0.1,0,0.2,0,0.3H24.2z"/>
	<path class="st0" d="M27.5,52.5c0-0.4,0-0.7,0-1H28l0,0.6h0c0.2-0.3,0.6-0.7,1.2-0.7c0.5,0,1.2,0.3,1.2,1.6v2.2h-0.6V53
		c0-0.6-0.2-1.1-0.8-1.1c-0.4,0-0.7,0.3-0.9,0.7c0,0.1,0,0.2,0,0.3v2.2h-0.6V52.5z"/>
	<path class="st0" d="M34,55c-0.2,0.1-0.5,0.2-1,0.2c-1.1,0-1.8-0.8-1.8-1.9c0-1.1,0.7-2,1.9-2c0.4,0,0.7,0.1,0.9,0.2l-0.1,0.5
		c-0.2-0.1-0.4-0.2-0.7-0.2c-0.8,0-1.2,0.6-1.2,1.4c0,0.9,0.5,1.4,1.2,1.4c0.4,0,0.6-0.1,0.8-0.2L34,55z"/>
	<path class="st0" d="M37,52.9c0-0.4-0.2-1.1-0.9-1.1c-0.7,0-0.9,0.6-1,1.1H37z M35.1,53.4c0,0.9,0.6,1.3,1.2,1.3
		c0.5,0,0.7-0.1,1-0.2l0.1,0.5c-0.2,0.1-0.6,0.2-1.2,0.2c-1.1,0-1.7-0.8-1.7-1.9s0.6-2,1.7-2c1.2,0,1.5,1.1,1.5,1.7
		c0,0.1,0,0.2,0,0.3H35.1z"/>
	<path class="st0" d="M38,56.1c0.2-0.5,0.4-1.3,0.4-1.8l0.7-0.1c-0.2,0.7-0.5,1.5-0.7,1.9L38,56.1z"/>
	<polygon class="st0" points="42.4,50.6 41,50.6 41,50 44.6,50 44.6,50.6 43.1,50.6 43.1,55.2 42.4,55.2 	"/>
	<path class="st0" d="M46.6,52.9c0-0.4-0.2-1.1-0.9-1.1c-0.7,0-0.9,0.6-1,1.1H46.6z M44.7,53.4c0,0.9,0.6,1.3,1.2,1.3
		c0.5,0,0.7-0.1,1-0.2L47,55c-0.2,0.1-0.6,0.2-1.2,0.2c-1.1,0-1.7-0.8-1.7-1.9s0.6-2,1.7-2c1.2,0,1.5,1.1,1.5,1.7c0,0.1,0,0.2,0,0.3
		H44.7z"/>
	<path class="st0" d="M50.5,55c-0.2,0.1-0.5,0.2-1,0.2c-1.1,0-1.8-0.8-1.8-1.9c0-1.1,0.7-2,1.9-2c0.4,0,0.7,0.1,0.9,0.2l-0.1,0.5
		c-0.2-0.1-0.4-0.2-0.7-0.2c-0.8,0-1.2,0.6-1.2,1.4c0,0.9,0.5,1.4,1.2,1.4c0.4,0,0.6-0.1,0.8-0.2L50.5,55z"/>
	<path class="st0" d="M51.2,49.7h0.6V52h0c0.1-0.2,0.3-0.4,0.5-0.5c0.2-0.1,0.4-0.2,0.7-0.2c0.5,0,1.2,0.3,1.2,1.6v2.2h-0.6V53
		c0-0.6-0.2-1.1-0.8-1.1c-0.4,0-0.7,0.3-0.9,0.7c0,0.1,0,0.2,0,0.3v2.2h-0.6V49.7z"/>
	<path class="st0" d="M55.3,52.5c0-0.4,0-0.7,0-1h0.6l0,0.6h0c0.2-0.3,0.6-0.7,1.2-0.7c0.5,0,1.2,0.3,1.2,1.6v2.2h-0.6V53
		c0-0.6-0.2-1.1-0.8-1.1c-0.4,0-0.7,0.3-0.9,0.7c0,0.1,0,0.2,0,0.3v2.2h-0.6V52.5z"/>
	<path class="st0" d="M59.7,53.3c0,0.8,0.4,1.4,1.1,1.4c0.6,0,1.1-0.6,1.1-1.4c0-0.6-0.3-1.4-1.1-1.4C60.1,51.9,59.7,52.6,59.7,53.3
		 M62.5,53.3c0,1.4-0.9,2-1.8,2c-0.9,0-1.7-0.7-1.7-1.9c0-1.2,0.8-2,1.8-2C61.8,51.4,62.5,52.1,62.5,53.3"/>
	<rect x="63.3" y="49.7" class="st0" width="0.6" height="5.5"/>
	<path class="st0" d="M65.5,53.3c0,0.8,0.4,1.4,1.1,1.4c0.6,0,1.1-0.6,1.1-1.4c0-0.6-0.3-1.4-1.1-1.4C65.8,51.9,65.5,52.6,65.5,53.3
		 M68.3,53.3c0,1.4-0.9,2-1.8,2c-0.9,0-1.7-0.7-1.7-1.9c0-1.2,0.8-2,1.8-2C67.6,51.4,68.3,52.1,68.3,53.3"/>
	<path class="st0" d="M71.4,52.9c0-0.1,0-0.2,0-0.3c-0.1-0.4-0.4-0.7-0.9-0.7c-0.6,0-1.1,0.5-1.1,1.4c0,0.7,0.4,1.3,1,1.3
		c0.4,0,0.8-0.3,0.9-0.7c0-0.1,0.1-0.2,0.1-0.4V52.9z M72.1,54.6c0,0.9-0.2,1.4-0.5,1.7c-0.3,0.3-0.8,0.4-1.3,0.4
		c-0.4,0-0.9-0.1-1.2-0.3l0.2-0.5c0.2,0.2,0.6,0.3,1,0.3c0.7,0,1.1-0.4,1.1-1.3v-0.4h0c-0.2,0.3-0.6,0.6-1.1,0.6
		c-0.9,0-1.5-0.8-1.5-1.8c0-1.3,0.8-2,1.6-2c0.6,0,0.9,0.3,1.1,0.6h0l0-0.6h0.6c0,0.3,0,0.6,0,1V54.6z"/>
	<path class="st0" d="M73.4,51.5l0.8,2.2c0.1,0.2,0.2,0.5,0.2,0.8h0c0.1-0.2,0.1-0.5,0.2-0.8l0.7-2.2H76l-1,2.6
		c-0.5,1.3-0.8,1.9-1.2,2.3c-0.3,0.3-0.6,0.4-0.8,0.4l-0.2-0.6c0.2-0.1,0.4-0.2,0.6-0.3c0.2-0.1,0.4-0.4,0.5-0.8
		c0-0.1,0.1-0.1,0.1-0.2c0,0,0-0.1-0.1-0.2l-1.3-3.4H73.4z"/>
	<path class="st0" d="M80,53.3c-0.7,0-1.5,0.1-1.5,0.8c0,0.4,0.3,0.6,0.6,0.6c0.5,0,0.8-0.3,0.9-0.6c0-0.1,0-0.2,0-0.2V53.3z
		 M80.6,54.3c0,0.3,0,0.6,0.1,0.9h-0.6L80,54.7h0c-0.2,0.3-0.6,0.6-1.1,0.6c-0.7,0-1.1-0.5-1.1-1.1c0-0.9,0.8-1.4,2.1-1.4v-0.1
		c0-0.3-0.1-0.9-0.8-0.9c-0.3,0-0.7,0.1-0.9,0.3l-0.1-0.5c0.3-0.2,0.7-0.3,1.2-0.3c1.1,0,1.3,0.8,1.3,1.5V54.3z"/>
	<path class="st0" d="M81.6,52.5c0-0.4,0-0.7,0-1h0.6l0,0.6h0c0.2-0.3,0.6-0.7,1.2-0.7c0.5,0,1.2,0.3,1.2,1.6v2.2H84V53
		c0-0.6-0.2-1.1-0.8-1.1c-0.4,0-0.7,0.3-0.9,0.7c0,0.1,0,0.2,0,0.3v2.2h-0.6V52.5z"/>
	<path class="st0" d="M88.1,53c0-0.1,0-0.2,0-0.3c-0.1-0.4-0.4-0.8-0.9-0.8c-0.7,0-1.1,0.6-1.1,1.4c0,0.8,0.4,1.4,1,1.4
		c0.4,0,0.8-0.3,0.9-0.8c0-0.1,0-0.2,0-0.3V53z M88.7,49.7v4.5c0,0.3,0,0.7,0,1h-0.6l0-0.6h0c-0.2,0.4-0.6,0.7-1.2,0.7
		c-0.9,0-1.5-0.8-1.5-1.9c0-1.2,0.7-2,1.6-2c0.5,0,0.9,0.3,1.1,0.6h0v-2.2H88.7z"/>
	<path class="st0" d="M91.3,54.4c0.3,0.2,0.7,0.3,1.1,0.3c0.6,0,1-0.4,1-0.9c0-0.5-0.3-0.8-0.9-1c-0.8-0.3-1.3-0.8-1.3-1.5
		c0-0.8,0.6-1.4,1.6-1.4c0.5,0,0.9,0.1,1.1,0.3l-0.2,0.5c-0.2-0.1-0.5-0.2-0.9-0.2c-0.7,0-0.9,0.4-0.9,0.8c0,0.5,0.3,0.7,1,1
		c0.8,0.3,1.2,0.8,1.2,1.5c0,0.8-0.6,1.5-1.7,1.5c-0.5,0-1-0.2-1.3-0.3L91.3,54.4z"/>
	<path class="st0" d="M97.2,52.9c0-0.4-0.2-1.1-0.9-1.1c-0.7,0-0.9,0.6-1,1.1H97.2z M95.3,53.4c0,0.9,0.6,1.3,1.2,1.3
		c0.5,0,0.7-0.1,1-0.2l0.1,0.5c-0.2,0.1-0.6,0.2-1.2,0.2c-1.1,0-1.7-0.8-1.7-1.9s0.6-2,1.7-2c1.2,0,1.5,1.1,1.5,1.7
		c0,0.1,0,0.2,0,0.3H95.3z"/>
	<path class="st0" d="M101.1,55c-0.2,0.1-0.5,0.2-1,0.2c-1.1,0-1.8-0.8-1.8-1.9c0-1.1,0.7-2,1.9-2c0.4,0,0.7,0.1,0.9,0.2l-0.1,0.5
		c-0.2-0.1-0.4-0.2-0.7-0.2c-0.8,0-1.3,0.6-1.3,1.4c0,0.9,0.5,1.4,1.2,1.4c0.4,0,0.6-0.1,0.8-0.2L101.1,55z"/>
	<path class="st0" d="M104.8,54.1c0,0.4,0,0.7,0,1h-0.6l0-0.6h0c-0.2,0.3-0.5,0.7-1.2,0.7c-0.6,0-1.2-0.3-1.2-1.6v-2.2h0.6v2.1
		c0,0.7,0.2,1.2,0.8,1.2c0.4,0,0.7-0.3,0.8-0.6c0-0.1,0.1-0.2,0.1-0.3v-2.3h0.6V54.1z"/>
	<path class="st0" d="M105.9,52.6c0-0.4,0-0.8,0-1.2h0.6l0,0.7h0c0.2-0.5,0.6-0.8,1-0.8c0.1,0,0.1,0,0.2,0V52c-0.1,0-0.1,0-0.2,0
		c-0.5,0-0.8,0.4-0.9,0.9c0,0.1,0,0.2,0,0.3v2h-0.6V52.6z"/>
	<g>
		<path class="st0" d="M32.9,58.7h-1.6v-0.6h3.8v0.6h-1.6v4.6h-0.7V58.7z"/>
		<path class="st0" d="M35.5,61.5c0,0.9,0.6,1.3,1.3,1.3c0.5,0,0.8-0.1,1-0.2l0.1,0.5c-0.2,0.1-0.6,0.2-1.2,0.2
			c-1.1,0-1.8-0.8-1.8-1.9c0-1.1,0.7-2,1.7-2c1.2,0,1.5,1,1.5,1.7c0,0.1,0,0.2,0,0.3H35.5z M37.5,61c0-0.4-0.2-1.1-0.9-1.1
			c-0.7,0-1,0.6-1,1.1H37.5z"/>
		<path class="st0" d="M38.9,57.8h0.7v5.4h-0.7V57.8z"/>
		<path class="st0" d="M43.2,61.6l-0.5,1.6H42l1.7-5.1h0.8l1.7,5.1h-0.7L45,61.6H43.2z M44.9,61.1l-0.5-1.5
			c-0.1-0.3-0.2-0.6-0.3-0.9h0c-0.1,0.3-0.2,0.6-0.3,0.9l-0.5,1.5H44.9z"/>
		<path class="st0" d="M47.1,59.5l0.7,2.1c0.1,0.3,0.2,0.6,0.3,0.9h0c0.1-0.3,0.2-0.6,0.3-0.9l0.7-2.1h0.7l-1.4,3.7h-0.6l-1.4-3.7
			H47.1z"/>
		<path class="st0" d="M51.2,58.5c0,0.2-0.2,0.4-0.4,0.4c-0.2,0-0.4-0.2-0.4-0.4c0-0.2,0.2-0.4,0.4-0.4C51,58.1,51.2,58.3,51.2,58.5
			z M50.5,63.2v-3.7h0.7v3.7H50.5z"/>
		<path class="st0" d="M52.5,59.5l0.7,2.1c0.1,0.3,0.2,0.6,0.3,0.9h0c0.1-0.3,0.2-0.6,0.3-0.9l0.7-2.1h0.7l-1.4,3.7h-0.6l-1.4-3.7
			H52.5z"/>
		<path class="st0" d="M58.2,58.1v3c0,1.1,0.5,1.6,1.2,1.6c0.8,0,1.2-0.5,1.2-1.6v-3h0.7v3c0,1.6-0.8,2.2-1.9,2.2
			c-1,0-1.8-0.6-1.8-2.2v-3H58.2z"/>
		<path class="st0" d="M62.4,60.5c0-0.4,0-0.7,0-1H63l0,0.6h0c0.2-0.3,0.6-0.7,1.2-0.7c0.5,0,1.3,0.3,1.3,1.6v2.2h-0.7v-2.1
			c0-0.6-0.2-1.1-0.9-1.1c-0.4,0-0.8,0.3-0.9,0.7c0,0.1,0,0.2,0,0.3v2.2h-0.7V60.5z"/>
		<path class="st0" d="M67.4,58.5c0,0.2-0.2,0.4-0.4,0.4c-0.2,0-0.4-0.2-0.4-0.4c0-0.2,0.2-0.4,0.4-0.4
			C67.2,58.1,67.4,58.3,67.4,58.5z M66.6,63.2v-3.7h0.7v3.7H66.6z"/>
		<path class="st0" d="M68.7,59.5l0.7,2.1c0.1,0.3,0.2,0.6,0.3,0.9h0c0.1-0.3,0.2-0.6,0.3-0.9l0.7-2.1h0.7L70,63.2h-0.6L68,59.5
			H68.7z"/>
		<path class="st0" d="M72.4,61.5c0,0.9,0.6,1.3,1.3,1.3c0.5,0,0.8-0.1,1-0.2l0.1,0.5c-0.2,0.1-0.6,0.2-1.2,0.2
			c-1.1,0-1.8-0.8-1.8-1.9c0-1.1,0.7-2,1.7-2c1.2,0,1.5,1,1.5,1.7c0,0.1,0,0.2,0,0.3H72.4z M74.3,61c0-0.4-0.2-1.1-0.9-1.1
			c-0.7,0-1,0.6-1,1.1H74.3z"/>
		<path class="st0" d="M75.8,60.7c0-0.4,0-0.8,0-1.1h0.6l0,0.7h0c0.2-0.5,0.6-0.8,1-0.8c0.1,0,0.1,0,0.2,0v0.6c-0.1,0-0.1,0-0.2,0
			c-0.5,0-0.8,0.3-0.9,0.9c0,0.1,0,0.2,0,0.3v2h-0.7V60.7z"/>
		<path class="st0" d="M78.2,62.5c0.2,0.1,0.6,0.3,0.9,0.3c0.5,0,0.7-0.2,0.7-0.5c0-0.3-0.2-0.5-0.7-0.7c-0.7-0.2-1-0.6-1-1
			c0-0.6,0.5-1.1,1.3-1.1c0.4,0,0.7,0.1,0.9,0.2l-0.2,0.5C80,60.1,79.7,60,79.4,60c-0.4,0-0.6,0.2-0.6,0.5c0,0.3,0.2,0.4,0.7,0.6
			c0.6,0.2,1,0.6,1,1.1c0,0.7-0.5,1.1-1.4,1.1c-0.4,0-0.8-0.1-1-0.3L78.2,62.5z"/>
		<path class="st0" d="M82,58.5c0,0.2-0.2,0.4-0.4,0.4c-0.2,0-0.4-0.2-0.4-0.4c0-0.2,0.2-0.4,0.4-0.4C81.9,58.1,82,58.3,82,58.5z
			 M81.3,63.2v-3.7H82v3.7H81.3z"/>
		<path class="st0" d="M83.9,58.7v0.9h1v0.5h-1v2c0,0.5,0.1,0.7,0.5,0.7c0.2,0,0.3,0,0.4,0l0,0.5c-0.1,0-0.3,0.1-0.6,0.1
			c-0.3,0-0.6-0.1-0.7-0.3c-0.2-0.2-0.3-0.5-0.3-1v-2h-0.6v-0.5h0.6v-0.7L83.9,58.7z"/>
		<path class="st0" d="M85.9,59.5l0.8,2.2c0.1,0.2,0.2,0.5,0.2,0.8h0c0.1-0.2,0.1-0.5,0.2-0.8l0.7-2.2h0.7l-1,2.6
			c-0.5,1.3-0.8,1.9-1.3,2.3c-0.3,0.3-0.7,0.4-0.8,0.4l-0.2-0.6c0.2-0.1,0.4-0.2,0.6-0.3c0.2-0.1,0.4-0.4,0.6-0.7
			c0-0.1,0.1-0.1,0.1-0.2c0,0,0-0.1-0.1-0.2l-1.4-3.4H85.9z"/>
	</g>
</g>
</svg>
